<?xml version="1.0" encoding="UTF-8"?>
<svg version="1.1" xmlns="http://www.w3.org/2000/svg" width="77" height="105">
<path d="M0 0 C21.45 0 42.9 0 65 0 C65 11.80655964 61.69498223 22.52094215 53.71484375 31.39453125 C50.00594886 34.86686793 45.80810534 37.39729822 41 39 C40.67 40.65 40.34 42.3 40 44 C40.86625 44.2475 41.7325 44.495 42.625 44.75 C50.71351689 47.745747 56.40285472 53.27306205 60.51953125 60.765625 C63.71505828 67.80130987 64.84984592 74.30119075 65 82 C63.02 82 61.04 82 59 82 C58.75765625 81.38511719 58.5153125 80.77023438 58.265625 80.13671875 C55.90401238 74.04249656 55.90401238 74.04249656 51 70 C47.53287889 68.84429296 44.4585044 68.67164707 40.8125 68.4375 C38.90404297 68.31181641 38.90404297 68.31181641 36.95703125 68.18359375 C35.98121094 68.12300781 35.00539062 68.06242187 34 68 C33.90094697 63.65842948 33.82844699 59.31746146 33.78027344 54.97509766 C33.76018699 53.4987441 33.73291199 52.02246981 33.69824219 50.54638672 C33.64958816 48.42135038 33.62700327 46.29736766 33.609375 44.171875 C33.58842773 42.8940918 33.56748047 41.61630859 33.54589844 40.29980469 C34.07782895 36.43444299 34.96145309 35.34696226 38 33 C40.18331515 31.72672497 42.40895914 30.63879888 44.68359375 29.5390625 C47.7874757 27.63571259 47.7874757 27.63571259 52 22 C39.13 22 26.26 22 13 22 C18.08883033 28.35997182 18.08883033 28.35997182 24.25 31.75 C28.80736544 33.71104816 28.80736544 33.71104816 31 37 C31.22705078 40.1862793 31.22705078 40.1862793 31.1953125 44.07421875 C31.1924826 44.7580513 31.18965271 45.44188385 31.18673706 46.1464386 C31.17555684 48.32697165 31.15045691 50.50709145 31.125 52.6875 C31.11496738 54.16731177 31.10584202 55.64712999 31.09765625 57.12695312 C31.07562481 60.751436 31.04111002 64.37567766 31 68 C30.05898438 68.03738281 29.11796875 68.07476562 28.1484375 68.11328125 C26.90320313 68.17902344 25.65796875 68.24476562 24.375 68.3125 C23.14523438 68.37050781 21.91546875 68.42851563 20.6484375 68.48828125 C16.05417664 69.13265831 12.50506094 70.44118688 9.25 73.8125 C7.74411713 76.44779503 6.85823397 79.0952081 6 82 C4.02 82 2.04 82 0 82 C0.46458284 69.9905335 3.34969158 59.70099382 12 51 C16.03714433 47.76073724 19.8640982 45.02022429 25 44 C25.12815365 41.6147267 25.12815365 41.6147267 24 39 C22.11310387 37.79310701 20.16078376 36.93130851 18.12109375 36.0078125 C9.85586907 32.08068917 5.681664 24.24977939 2.1875 16.125 C1 12 1 12 0 0 Z " fill="#FFFFFF" transform="translate(6,11)"/>
<path d="M0 0 C0.70909012 -0.00350464 1.41818024 -0.00700928 2.14875793 -0.01062012 C4.49835937 -0.01944014 6.84766099 -0.01358746 9.19726562 -0.00683594 C10.82629454 -0.00818251 12.45532305 -0.01012298 14.08435059 -0.01263428 C17.50077129 -0.0155859 20.91708752 -0.0112867 24.33349609 -0.00195312 C28.71868964 0.00944148 33.10363838 0.00288221 37.48882294 -0.00909805 C40.85335138 -0.01631564 44.21782152 -0.0140292 47.58235168 -0.00884247 C49.1995293 -0.00750569 50.81671217 -0.00915468 52.43388367 -0.01380157 C54.69174272 -0.01886522 56.94920206 -0.0111592 59.20703125 0 C61.13657654 0.00238678 61.13657654 0.00238678 63.10510254 0.00482178 C66.10351562 0.25878906 66.10351562 0.25878906 68.10351562 2.25878906 C68.35351562 5.25878906 68.35351562 5.25878906 68.10351562 8.25878906 C65.23166296 11.13064173 63.22859918 10.51260359 59.20703125 10.51757812 C58.49794113 10.52108276 57.78885101 10.5245874 57.05827332 10.52819824 C54.70867188 10.53701827 52.35937026 10.53116559 50.00976562 10.52441406 C48.38073671 10.52576064 46.7517082 10.52770111 45.12268066 10.5302124 C41.70625996 10.53316403 38.28994373 10.52886483 34.87353516 10.51953125 C30.48834161 10.50813664 26.10339287 10.51469592 21.71820831 10.52667618 C18.35367987 10.53389377 14.98920973 10.53160733 11.62467957 10.52642059 C10.00750195 10.52508381 8.39031908 10.5267328 6.77314758 10.5313797 C4.51528853 10.53644334 2.25782919 10.52873732 0 10.51757812 C-1.92954529 10.51519135 -1.92954529 10.51519135 -3.89807129 10.51275635 C-6.89648438 10.25878906 -6.89648438 10.25878906 -8.89648438 8.25878906 C-9.14648438 5.25878906 -9.14648438 5.25878906 -8.89648438 2.25878906 C-6.02463171 -0.6130636 -4.02156793 0.00497454 0 0 Z " fill="#FFFFFF" transform="translate(8.896484375,94.7412109375)"/>
<path d="M0 0 C0.70909012 -0.00350464 1.41818024 -0.00700928 2.14875793 -0.01062012 C4.49835937 -0.01944014 6.84766099 -0.01358746 9.19726562 -0.00683594 C10.82629454 -0.00818251 12.45532305 -0.01012298 14.08435059 -0.01263428 C17.50077129 -0.0155859 20.91708752 -0.0112867 24.33349609 -0.00195312 C28.71868964 0.00944148 33.10363838 0.00288221 37.48882294 -0.00909805 C40.85335138 -0.01631564 44.21782152 -0.0140292 47.58235168 -0.00884247 C49.1995293 -0.00750569 50.81671217 -0.00915468 52.43388367 -0.01380157 C54.69174272 -0.01886522 56.94920206 -0.0111592 59.20703125 0 C61.13657654 0.00238678 61.13657654 0.00238678 63.10510254 0.00482178 C66.10351562 0.25878906 66.10351562 0.25878906 68.10351562 2.25878906 C68.41601562 5.25878906 68.41601562 5.25878906 68.10351562 8.25878906 C64.44086788 10.70055423 62.66021206 10.51729308 58.29296875 10.53344727 C57.60484604 10.5385582 56.91672333 10.54366913 56.20774841 10.54893494 C53.93333234 10.56283431 51.65921912 10.56187417 49.38476562 10.55957031 C47.80440152 10.56345666 46.22403846 10.5677912 44.64367676 10.57255554 C41.3315899 10.58001818 38.01960963 10.57972589 34.70751953 10.57446289 C30.46025208 10.56866381 26.21342009 10.5856093 21.96622467 10.60880756 C18.7028752 10.62352783 15.43963106 10.62441903 12.17625427 10.62129784 C10.61013424 10.62181177 9.04400842 10.62706299 7.47792053 10.63710976 C5.28967841 10.6494262 3.10229061 10.64271262 0.9140625 10.63110352 C-0.33153442 10.63173294 -1.57713135 10.63236237 -2.86047363 10.63301086 C-5.89648438 10.25878906 -5.89648438 10.25878906 -7.8026123 8.89567566 C-9.3493623 6.58109573 -9.24531758 4.9796881 -8.89648438 2.25878906 C-6.02463171 -0.6130636 -4.02156793 0.00497454 0 0 Z " fill="#FFFFFF" transform="translate(8.896484375,-0.2587890625)"/>
</svg>
