<?xml version="1.0" encoding="utf-8"?>
<!-- Generator: Adobe Illustrator 23.0.1, SVG Export Plug-In . SVG Version: 6.00 Build 0)  -->
<svg version="1.1" id="Layer_1" xmlns="http://www.w3.org/2000/svg" xmlns:xlink="http://www.w3.org/1999/xlink" x="0px" y="0px"
	 viewBox="0 0 28 28" enable-background="new 0 0 28 28" xml:space="preserve">
<path id="world" display="none" fill="#FFFFFF" d="M-6.15,63.45c-0.94,0.46-1.77,1.07-2.19,2.01c-0.11,0.24-0.19,0.5-0.36,0.69
	c-0.17,0.2-0.47,0.32-0.7,0.19c-0.25-0.15-0.27-0.5-0.28-0.79c-0.03-0.89-0.31-1.81-0.94-2.44c-0.63-0.63-1.64-0.92-2.46-0.55
	c-0.3,0.14-0.59,0.45-0.49,0.77c0.05,0.16,0.19,0.27,0.27,0.41c0.28,0.46-0.07,1.09-0.57,1.29c-0.49,0.21-1.05,0.11-1.58,0.02
	c0.03-0.4,0.05-0.83-0.13-1.19c-0.18-0.36-0.63-0.62-0.99-0.44c-0.16,0.08-0.27,0.22-0.37,0.36c-0.33,0.43-0.68,0.93-0.61,1.46
	c0.1,0.71,0.86,1.1,1.51,1.4c0.65,0.3,1.38,0.8,1.33,1.52c-0.02,0.24-0.13,0.47-0.23,0.69c-0.28,0.56-0.56,1.13-1.02,1.55
	c-0.48,0.44-1.14,0.72-1.4,1.31c-0.4,0.88,0.3,2.03-0.22,2.85c-0.16,0.26-0.43,0.43-0.68,0.6c-0.36,0.24-0.71,0.47-1.07,0.71
	c-0.32,0.21-0.65,0.43-1.03,0.5c-0.38,0.07-0.82-0.03-1.03-0.35c-0.13-0.2-0.16-0.44-0.17-0.67c-0.04-0.81,0.06-1.62,0.3-2.39
	c0.04-0.11,0.07-0.23,0.05-0.35c-0.08-0.39-0.65-0.32-1.03-0.44c-0.5-0.17-0.7-0.76-0.72-1.29c-0.02-0.52,0.06-1.07-0.15-1.55
	c-0.38-0.86-1.5-1.08-2.44-1.06c-0.94,0.02-1.98,0.13-2.74-0.43c-0.74-0.55-0.95-1.58-0.94-2.5c0.01-0.7,0.15-1.48,0.71-1.92
	c0.3-0.23,0.7-0.36,0.86-0.7c0.06-0.13,0.08-0.29,0.18-0.4c0.21-0.24,0.6-0.13,0.91-0.09c0.75,0.1,1.45-0.34,2.16-0.62
	c0.71-0.28,1.67-0.32,2.07,0.33c0.1,0.15,0.16,0.34,0.31,0.44c0.22,0.13,0.5,0.02,0.71-0.12c0.38-0.25,0.72-0.56,1.11-0.78
	c0.4-0.22,0.89-0.34,1.3-0.15c0.3,0.14,0.58,0.43,0.89,0.33c0.34-0.11,0.37-0.62,0.14-0.89c-0.23-0.27-0.6-0.36-0.94-0.47
	c-0.34-0.1-0.7-0.25-0.86-0.57c-0.12-0.25-0.09-0.57-0.25-0.8c-0.75,0.1-1.1,1.06-1.82,1.31c-0.64,0.23-1.3-0.18-1.91-0.46
	c-0.61-0.29-1.48-0.39-1.83,0.18c-0.09,0.15-0.13,0.33-0.22,0.48c-0.31,0.5-1.16,0.44-1.48-0.06c-0.32-0.5-0.11-1.21,0.36-1.57
	c0.22-0.17,0.52-0.31,0.59-0.58c0.03-0.13,0-0.26,0-0.39c-0.01-0.62,0.66-1.16,1.27-1.01c0.34,0.08,0.6,0.33,0.9,0.51
	c0.62,0.37,1.44,0.43,2.05,0.05c0.61-0.38,0.92-1.23,0.61-1.87c-0.04-0.08-0.09-0.16-0.16-0.2c-0.23-0.13-0.51,0.13-0.56,0.39
	c-0.06,0.26-0.01,0.55-0.14,0.78c-0.26,0.46-1.05,0.3-1.27-0.18c-0.22-0.48-0.02-1.05,0.29-1.48c0.77-1.05,2.26-1.52,3.49-1.09
	c0.55,0.19,1.06,0.53,1.64,0.52c0.65-0.01,1.16-0.46,1.69-0.89c-1.02-0.24-2.08-0.37-3.17-0.37c-7.66,0-13.86,6.21-13.86,13.86
	s6.21,13.86,13.86,13.86c7.66,0,13.86-6.21,13.86-13.86C-5.73,65.67-5.87,64.54-6.15,63.45z M-11.66,71.68
	c-0.11,0.5-0.32,0.96-0.54,1.42c-0.15,0.32-0.29,0.64-0.44,0.96c-0.02,0.04-0.04,0.09-0.08,0.11c-0.05,0.04-0.13,0.04-0.2,0.05
	c-0.22,0.02-0.42,0.14-0.63,0.19c-0.38,0.09-0.77-0.02-1.14-0.13c-0.17-0.05-0.37-0.13-0.43-0.3c-0.04-0.13,0.02-0.28,0.08-0.4
	c0.1-0.18,0.21-0.35,0.33-0.52c0.15-0.2,0.33-0.4,0.32-0.65c0-0.04-0.01-0.07,0-0.11c0.03-0.08,0.13-0.1,0.21-0.13
	c0.32-0.11,0.48-0.46,0.66-0.74c0.21-0.33,0.51-0.61,0.85-0.81c0.13-0.07,0.32-0.13,0.47-0.12c0.24,0.01,0.45,0.22,0.52,0.45
	C-11.58,71.19-11.61,71.44-11.66,71.68z"/>
<path id="nation" display="none" fill="#FFFFFF" d="M-21.14,20.04c0.86,0,1.73-0.04,2.59,0.01c0.75,0.05,1.5,0.14,2.23,0.31
	c1.26,0.29,2.49,0.69,3.6,1.37c0.86,0.53,1.71,1.1,2.48,1.75c1.67,1.41,2.9,3.16,3.77,5.16c0.5,1.16,0.84,2.36,0.99,3.6
	c0.1,0.78,0.02,1.58,0.05,2.36c0.03,0.89-0.15,1.75-0.34,2.61c-0.33,1.55-0.97,2.97-1.81,4.3c-0.88,1.4-1.97,2.62-3.32,3.59
	c-0.62,0.45-1.23,0.95-1.91,1.28c-0.89,0.44-1.84,0.75-2.78,1.08c-0.46,0.16-0.95,0.24-1.43,0.36c-1.03,0.24-2.06,0.21-3.1,0.13
	c-0.06,0-0.12,0.01-0.17,0c-0.86-0.13-1.72-0.25-2.58-0.4c-1.05-0.18-2.03-0.59-2.94-1.11c-0.87-0.5-1.69-1.08-2.49-1.68
	c-1.18-0.88-2.09-2.02-2.88-3.24c-1.06-1.64-1.69-3.47-2.03-5.38c-0.14-0.81-0.02-1.67-0.08-2.5c-0.12-1.64,0.27-3.2,0.88-4.68
	c1.18-2.9,3.1-5.23,5.8-6.88c1.61-0.99,3.36-1.61,5.22-1.91c0.09-0.01,0.17-0.01,0.26-0.02C-21.14,20.1-21.14,20.07-21.14,20.04z
	 M-23.69,33.31c1.02,0,2.04-0.01,3.05,0.01c0.4,0.01,0.57-0.11,0.57-0.54c-0.02-1.53-0.02-3.05,0-4.58c0-0.4-0.13-0.54-0.53-0.53
	c-1.72,0.02-3.43,0.01-5.15,0c-0.35,0-0.51,0.13-0.61,0.47c-0.49,1.55-0.78,3.13-0.89,4.74c-0.02,0.34,0.1,0.44,0.41,0.44
	C-25.78,33.31-24.73,33.31-23.69,33.31z M-23.66,34.74c-1.06,0-2.12,0-3.18,0c-0.29,0-0.42,0.09-0.4,0.41
	c0.11,1.65,0.41,3.25,0.91,4.83c0.09,0.27,0.22,0.41,0.52,0.41c1.76-0.01,3.52-0.01,5.28,0c0.33,0,0.47-0.12,0.47-0.46
	c-0.01-1.57-0.01-3.14,0-4.71c0-0.36-0.14-0.48-0.49-0.48C-21.59,34.75-22.63,34.74-23.66,34.74z M-15.06,33.31
	c1,0,2.01-0.02,3.01,0.01c0.42,0.01,0.57-0.13,0.54-0.55c-0.11-1.63-0.4-3.23-0.96-4.77c-0.05-0.15-0.32-0.3-0.48-0.31
	c-1.75-0.02-3.49-0.01-5.24-0.02c-0.33,0-0.47,0.12-0.46,0.46c0.01,1.57,0.01,3.14,0,4.71c0,0.37,0.14,0.48,0.49,0.47
	C-17.13,33.3-16.09,33.31-15.06,33.31z M-15.06,34.74c-1.05,0-2.1,0.01-3.14,0c-0.31,0-0.45,0.1-0.44,0.43c0.01,1.6,0.01,3.2,0,4.8
	c0,0.3,0.13,0.41,0.42,0.41c1.78,0,3.55,0.01,5.33-0.02c0.15,0,0.39-0.17,0.44-0.31c0.56-1.56,0.85-3.17,0.96-4.82
	c0.02-0.39-0.12-0.51-0.5-0.5C-13.03,34.75-14.04,34.74-15.06,34.74z M-25.6,26.2c0.24,0.06,0.32,0.09,0.41,0.09
	c1.55,0,3.11,0,4.66,0c0.33,0,0.46-0.15,0.46-0.48c-0.01-1.25,0-2.5,0-3.75c0-0.6-0.05-0.63-0.62-0.47
	c-1.6,0.46-2.77,1.49-3.74,2.78C-24.84,24.94-25.18,25.55-25.6,26.2z M-25.43,41.79c-0.04,0.04-0.07,0.09-0.11,0.13
	c0.35,0.56,0.68,1.14,1.06,1.67c0.98,1.35,2.2,2.4,3.84,2.87c0.49,0.14,0.57,0.09,0.57-0.42c0-1.22,0-2.44,0-3.67
	c0-0.59-0.03-0.62-0.61-0.62c-1.44,0-2.88,0-4.32,0C-25.15,41.76-25.29,41.78-25.43,41.79z M-13.31,26.24
	c0.04-0.04,0.08-0.09,0.12-0.13c-0.37-0.58-0.72-1.18-1.12-1.73c-0.97-1.32-2.18-2.33-3.78-2.79c-0.48-0.14-0.54-0.09-0.54,0.39
	c0,1.26,0.01,2.53-0.01,3.79c-0.01,0.4,0.13,0.54,0.52,0.54c1.47-0.01,2.93,0,4.4-0.01C-13.59,26.3-13.45,26.26-13.31,26.24z
	 M-13.15,41.86c-0.26-0.06-0.37-0.1-0.48-0.1c-1.53,0-3.05,0-4.58,0c-0.34,0-0.44,0.16-0.44,0.49c0.01,1.28,0.02,2.56,0,3.84
	c-0.01,0.39,0.13,0.5,0.49,0.4c0.15-0.04,0.31-0.09,0.46-0.15c1.43-0.51,2.53-1.47,3.41-2.68C-13.91,43.11-13.57,42.52-13.15,41.86z
	 M-8.43,34.74c-0.42,0-0.84,0.01-1.27,0c-0.25,0-0.36,0.1-0.38,0.36c-0.1,1.66-0.37,3.29-0.85,4.89c-0.08,0.25-0.03,0.39,0.27,0.39
	c0.63-0.01,1.25,0.02,1.88-0.02c0.15-0.01,0.36-0.14,0.44-0.28c0.85-1.53,1.34-3.18,1.53-4.93c0.03-0.3-0.09-0.43-0.39-0.42
	C-7.62,34.75-8.02,34.74-8.43,34.74z M-10.96,27.69c0.01,0.15-0.01,0.24,0.02,0.32c0.49,1.62,0.75,3.29,0.88,4.97
	c0.01,0.12,0.22,0.31,0.35,0.32c0.84,0.03,1.69,0.01,2.53,0.02c0.29,0,0.39-0.14,0.36-0.41c-0.18-1.74-0.67-3.39-1.52-4.93
	c-0.06-0.12-0.2-0.27-0.31-0.27C-9.41,27.68-10.17,27.69-10.96,27.69z M-30.28,33.31c0.39,0,0.79-0.01,1.18,0
	c0.3,0.01,0.45-0.09,0.46-0.42c0.07-1.63,0.35-3.23,0.82-4.8c0.1-0.32,0-0.43-0.31-0.43c-0.54,0-1.08,0.02-1.61-0.01
	c-0.38-0.02-0.61,0.13-0.75,0.46c-0.27,0.64-0.6,1.27-0.8,1.93c-0.26,0.89-0.42,1.81-0.61,2.72c-0.08,0.38,0.07,0.58,0.49,0.55
	C-31.04,33.29-30.66,33.31-30.28,33.31z M-30.29,34.74c-0.39,0-0.79,0.01-1.18,0c-0.34-0.02-0.48,0.12-0.45,0.46
	c0.18,1.73,0.68,3.36,1.51,4.88c0.08,0.14,0.28,0.28,0.43,0.29c0.62,0.03,1.25,0.01,1.87,0.01c0.27,0,0.36-0.12,0.28-0.39
	c-0.47-1.6-0.77-3.22-0.83-4.88c-0.01-0.25-0.12-0.37-0.38-0.36C-29.45,34.74-29.87,34.74-30.29,34.74z M-13.49,22.9
	c-0.02,0.03-0.05,0.06-0.07,0.09c0.01,0.04,0.02,0.08,0.04,0.12c0.6,0.97,1.2,1.94,1.81,2.91c0.06,0.09,0.15,0.23,0.24,0.23
	c0.61,0.02,1.22,0.01,1.83,0.01c0.02-0.04,0.03-0.09,0.05-0.13C-10.65,24.76-11.97,23.71-13.49,22.9z M-25.19,22.99
	c-0.03-0.03-0.06-0.05-0.09-0.08c-1.51,0.81-2.82,1.87-3.85,3.29c0.63,0.07,1.23,0.08,1.83,0.05c0.1,0,0.21-0.18,0.28-0.29
	c0.56-0.9,1.11-1.8,1.66-2.7C-25.29,23.18-25.24,23.08-25.19,22.99z M-29.1,41.78c-0.02,0.05-0.03,0.1-0.05,0.16
	c1.07,1.34,2.36,2.4,3.97,3.24c-0.05-0.16-0.05-0.22-0.08-0.26c-0.6-0.97-1.2-1.95-1.8-2.92c-0.06-0.09-0.16-0.21-0.25-0.21
	C-27.9,41.77-28.5,41.78-29.1,41.78z M-9.6,41.92c-0.01-0.04-0.03-0.09-0.04-0.13c-0.61,0-1.23-0.01-1.84,0.01
	c-0.1,0-0.2,0.19-0.27,0.3c-0.47,0.78-0.94,1.57-1.41,2.35c-0.13,0.21-0.29,0.4-0.44,0.6c0.03,0.03,0.07,0.06,0.1,0.09
	C-11.98,44.34-10.66,43.28-9.6,41.92z"/>
<path id="faction" display="none" fill="#FFFFFF" d="M-6.47,3.52c-0.7-0.57-1.4-1.14-2.1-1.7c-0.32-0.26-0.35-0.46-0.15-0.85
	c0.29-0.55,0.58-1.11,0.87-1.66c0.23-0.44,0.11-1.24-0.23-1.59c-0.61-0.6-1.27-1.12-1.92-1.64c-0.67-0.53-1.31-1.1-1.96-1.67
	c-0.18-0.16-0.19-0.31-0.07-0.52c0.17-0.3,0.34-0.61,0.46-0.96c0.1-0.3,0.15-0.58-0.14-0.79c-0.27-0.19-0.5-0.16-0.7,0.16
	c-0.19,0.32-0.37,0.65-0.54,0.99c-0.03,0.07-0.08,0.16-0.1,0.23l-2.48,4.74l-2.85,5.44c0,0.01-0.01,0.01-0.01,0.02l-1.5,2.86
	l-1.5-2.86c0-0.01-0.01-0.01-0.01-0.02l-2.85-5.44l-2.48-4.74c-0.01-0.07-0.06-0.17-0.1-0.23c-0.18-0.33-0.35-0.67-0.54-0.99
	c-0.19-0.32-0.43-0.35-0.7-0.16c-0.29,0.2-0.24,0.49-0.14,0.79c0.12,0.35,0.28,0.66,0.46,0.96c0.12,0.21,0.11,0.36-0.07,0.52
	c-0.65,0.57-1.29,1.14-1.96,1.67c-0.65,0.52-1.31,1.04-1.92,1.64c-0.35,0.34-0.46,1.15-0.23,1.59c0.29,0.56,0.58,1.11,0.87,1.66
	c0.2,0.39,0.17,0.59-0.15,0.85c-0.7,0.57-1.4,1.13-2.1,1.7c-0.57,0.47-0.7,1.02-0.33,1.76c0.96,1.94,1.95,3.87,2.92,5.8
	c0.36,0.72,0.72,1.46,1.08,2.18c0.26,0.51,0.78,0.77,1.17,0.56c0.29-0.16,0.6-0.3,0.85-0.59c0.64-0.72,1.45-1.11,2.12-1.78
	c0.4-0.4,0.43-0.58,0.14-1.13c-0.35-0.67-0.62-1.4-1.02-2.02c-0.14-0.23-0.11-0.42,0.09-0.59c1.26-1.05,2.51-2.11,3.76-3.18
	c0.18-0.15,0.28-0.15,0.39,0.09c0.05,0.1,0.09,0.2,0.14,0.29l0.33,0.62c0.04,0.08,0.08,0.15,0.13,0.23
	c0.03,0.05,0.05,0.09,0.06,0.13l0.98,1.87l-0.4,0.76c-0.11,0.21-0.22,0.42-0.33,0.63c-0.25,0.48-0.51,0.96-0.77,1.43
	c-0.41,0.75-0.78,1.52-1.17,2.29l-0.61,1.17c-0.06,0.1-0.11,0.2-0.17,0.3c-0.43,0.75-0.81,1.54-1.21,2.32
	c-0.2,0.39-0.16,0.75,0.07,0.96c0.25,0.23,0.53,0.16,0.76-0.25c0.37-0.67,0.71-1.37,1.07-2.05c0.58-1.1,1.18-2.19,1.76-3.3
	c0.36-0.67,0.7-1.35,1.05-2.03c0.16-0.3,0.31-0.6,0.47-0.91c0.03-0.05,0.06-0.11,0.09-0.16c0.03,0.05,0.06,0.11,0.09,0.16
	c0.16,0.3,0.31,0.6,0.47,0.91c0.35,0.68,0.7,1.36,1.05,2.03c0.58,1.1,1.18,2.2,1.76,3.3c0.36,0.68,0.7,1.38,1.07,2.05
	c0.23,0.41,0.51,0.48,0.76,0.25c0.23-0.21,0.27-0.57,0.07-0.96c-0.4-0.78-0.78-1.57-1.21-2.32c-0.06-0.1-0.11-0.2-0.17-0.3
	l-0.61-1.17c-0.39-0.77-0.76-1.54-1.17-2.29c-0.26-0.47-0.52-0.95-0.77-1.43c-0.11-0.21-0.22-0.42-0.33-0.63l-0.4-0.76l0.98-1.87
	c0.02-0.04,0.04-0.09,0.06-0.13c0.04-0.08,0.08-0.15,0.13-0.23l0.33-0.62c0.05-0.1,0.1-0.19,0.14-0.29
	c0.12-0.24,0.21-0.24,0.39-0.09c1.25,1.07,2.5,2.13,3.76,3.18c0.2,0.17,0.24,0.36,0.09,0.59c-0.4,0.63-0.67,1.36-1.02,2.02
	c-0.29,0.55-0.26,0.73,0.14,1.13c0.67,0.67,1.48,1.06,2.12,1.78c0.25,0.29,0.56,0.43,0.85,0.59c0.38,0.21,0.91-0.05,1.17-0.56
	c0.37-0.72,0.72-1.46,1.08-2.18c0.97-1.93,1.96-3.86,2.92-5.8C-5.77,4.54-5.9,3.99-6.47,3.52z M-25.67,3.76
	c-0.87,0.79-2.08,0.54-2.7-0.56C-29,2.1-28.8,0.57-27.93-0.22c0.87-0.79,2.08-0.54,2.7,0.56C-24.6,1.44-24.8,2.97-25.67,3.76z
	 M-11.41,3.2c-0.62,1.1-1.83,1.35-2.7,0.56c-0.87-0.79-1.07-2.32-0.44-3.43c0.62-1.1,1.83-1.35,2.7-0.56
	C-10.99,0.57-10.79,2.1-11.41,3.2z"/>
<g id="item" display="none">
	<path display="inline" fill="#FFFFFF" d="M-77.66,58.25c0-1.31-1.06-2.37-2.37-2.37c-1.14,0-2.1,0.81-2.32,1.88
		c0.76,0.07,1.51,0.35,2.12,0.86v0c0.59,0.5,0.96,1.13,1.11,1.8C-78.26,60.07-77.66,59.23-77.66,58.25z"/>
	<path display="inline" fill="#FFFFFF" d="M-80.36,64.35c0.84-0.92,1.12-2.16,0.87-3.29c-0.16-0.73-0.53-1.41-1.11-1.95v0
		c-0.61-0.55-1.36-0.86-2.12-0.93c-1.13-0.11-2.3,0.28-3.12,1.18l-3.05,3.34c-0.27,0.29-0.46,0.63-0.62,0.97l-0.56-0.56
		c0.01-0.13,0.03-0.26,0.02-0.39c-0.07-1.49-1.33-2.65-2.82-2.59c-1.49,0.07-2.65,1.33-2.59,2.82c0.07,1.49,1.33,2.65,2.82,2.59
		c0.05,0,0.1-0.02,0.16-0.02l0.81,0.81l4.61,4.6l0.67,0.67c-0.01,0.13-0.03,0.26-0.02,0.39c0.07,1.49,1.33,2.65,2.82,2.59
		c1.49-0.07,2.65-1.33,2.59-2.82c-0.07-1.49-1.33-2.65-2.82-2.59c-0.05,0-0.1,0.02-0.16,0.02l-0.63-0.63
		c0.44-0.2,0.85-0.49,1.2-0.87L-80.36,64.35z M-91.62,63.94c-0.42,0.43-1.03,0.57-1.57,0.42c-0.24-0.07-0.47-0.19-0.67-0.38
		c-0.63-0.61-0.65-1.61-0.04-2.24c0.61-0.63,1.61-0.65,2.24-0.04c0.21,0.2,0.34,0.45,0.42,0.71
		C-91.09,62.93-91.21,63.52-91.62,63.94z M-83.29,70.36c0.25,0.07,0.49,0.19,0.69,0.38c0.63,0.61,0.65,1.61,0.04,2.24
		c-0.61,0.63-1.61,0.65-2.24,0.04c-0.21-0.2-0.35-0.46-0.42-0.72c-0.14-0.52-0.02-1.1,0.38-1.52
		C-84.42,70.35-83.82,70.21-83.29,70.36z"/>
	<path display="inline" fill="#FFFFFF" d="M-101.89,82.88c0,0,5.64,1.16,14.3-11.46l-4.61-4.6
		C-103.9,77.37-101.89,82.88-101.89,82.88z"/>
</g>
<g id="race" display="none">
	<rect x="-62.31" y="55.01" display="inline" fill="#FFFFFF" width="2.63" height="2.59"/>
	<path display="inline" fill="#FFFFFF" d="M-56.94,79.99V77.4h-3.56C-60.49,77.4-61.06,80.23-56.94,79.99z"/>
	<path display="inline" fill="#FFFFFF" d="M-40.85,61.85l-2.29-0.04l0.1,2.71l-2.47,0.04c0,0,0.12-3.72-3.8-3.6l-0.08-3.07
		c0,0-3.35-0.81-3.27,2.83l-1.86,0.04v0.03l-1.86-0.04c0.08-3.64-3.27-2.83-3.27-2.83l-0.08,3.07c-3.92-0.12-3.8,3.6-3.8,3.6
		l-2.47-0.04l0.1-2.71l-2.29,0.04c-1.25,6.87,1.74,5.74,1.74,5.74c-0.08,3.27,2.87,2.79,2.87,2.79c-0.61,7.52,3.4,6.67,3.4,6.67
		v-3.92h5.66v-0.03h5.66v3.92c0,0,4,0.85,3.4-6.67c0,0,2.95,0.49,2.87-2.79C-42.59,67.59-39.6,68.72-40.85,61.85z M-58.23,67.34
		c0,0.69-0.56,1.25-1.25,1.25c-0.69,0-1.25-0.56-1.25-1.25V65.8c0-0.69,0.56-1.25,1.25-1.25c0.69,0,1.25,0.56,1.25,1.25V67.34z
		 M-48.29,67.31c0,0.69-0.56,1.25-1.25,1.25s-1.25-0.56-1.25-1.25v-1.54c0-0.69,0.56-1.25,1.25-1.25s1.25,0.56,1.25,1.25V67.31z"/>
	<rect x="-49.34" y="54.98" display="inline" fill="#FFFFFF" width="2.63" height="2.59"/>
	<path display="inline" fill="#FFFFFF" d="M-52.09,77.37v2.59c4.12,0.24,3.56-2.59,3.56-2.59H-52.09z"/>
</g>
<g id="short" display="none">
	<path display="inline" fill="#929497" d="M-53.58,13.33c0.02-0.4,0.57-2.58,9.72-1.68c0,0,1.26,0.11,1.31-1.86V-3.64
		c0,0,0.33-1.15-1.47-1.2h-7.7c0,0-0.78,0.08-1.34,0.74v14.74c-0.56,0.87-1.04,0-1.04,0V-4.1c-0.56-0.66-1.34-0.74-1.34-0.74h-7.7
		c-1.8,0.05-1.47,1.2-1.47,1.2V9.79c0.05,1.97,1.31,1.86,1.31,1.86C-54.15,10.75-53.61,12.93-53.58,13.33"/>
	<path display="inline" fill="#929497" d="M-41.51-3.32c0,0,0.13,9.01,0.02,13.01c-0.11,4-2.69,3.37-2.69,3.37
		c-7.31-0.82-9.39,2.03-9.39,2.03h0c0,0-2.09-2.84-9.39-2.03c0,0-2.58,0.64-2.69-3.37c-0.11-4,0.02-13.01,0.02-13.01
		s-1.26,0.52-1.47,3.23v15.39c0,0,8.16-2.73,13.54,1.25v0c0,0,0,0,0,0c0,0,0,0,0,0v0c5.38-3.99,13.54-1.25,13.54-1.25V-0.09
		C-40.25-2.79-41.51-3.32-41.51-3.32z"/>
</g>
<path id="US" display="none" fill="#FFFFFF" d="M-46.2,110.34v-3.58h-1.83l-0.94-1.24l-0.05-7.16l1.67-1.79h1.56v-6.81h-3.24v3
	h-3.03v-3h-4.45v3h-3.03v-3h-3.39v6.81h1.56l1.67,1.79l-0.05,7.16l-0.94,1.24h-1.83v3.58h-2.5v3.58h21.32v-3.58H-46.2z
	 M-60.95,95.22v-1.08h13.17v1.08H-60.95z M-49.93,98.42h-8.87V97.3h8.87V98.42z"/>
<g id="tradition" display="none">
	<path display="inline" fill="#FFFFFF" d="M-75.62,31.89c0,0-2.28,1.71-7.49,1.46c-1.24,0.06-2.32,0.01-3.24-0.11
		c-1,3.61-2.78,5.34-4.28,6.16c1.14,10.43,7.51,10.22,7.51,10.22S-73.95,49.94-75.62,31.89z M-82.55,37.26
		c0.09,0.04-2.81,3.98-5.33-0.04C-86.21,38.08-84.23,38.1-82.55,37.26z M-87.43,46.49c0,0,5.5-7.96,8.75,0
		C-78.68,46.49-82.17,43.8-87.43,46.49z M-81.34,37.22c1.67,0.86,3.65,0.88,5.33,0.04C-75.92,37.3-78.83,41.24-81.34,37.22z"/>
	<path display="inline" fill="#FFFFFF" d="M-86.9,32.42c0.71-2.55,1.03-6.04,0.59-10.82c0,0-2.28,1.71-7.49,1.46
		c-5.21,0.25-7.49-1.46-7.49-1.46c-1.67,18.05,7.49,17.73,7.49,17.73s1.18,0.04,2.62-0.75C-89.67,37.76-87.9,36.03-86.9,32.42z
		 M-87.87,27.93c-1.68-0.84-3.66-0.83-5.33,0.04C-90.68,23.95-87.78,27.88-87.87,27.93z M-94.4,27.93
		c-1.68-0.84-3.66-0.83-5.33,0.04C-97.22,23.95-94.31,27.88-94.4,27.93z M-99.46,31.34c0,0,3.76,5.63,11.32,0
		C-88.14,31.34-94.07,43.25-99.46,31.34z"/>
</g>
<path id="creature" display="none" fill="#FFFFFF" d="M-44.62,39.05c1.28-0.37,2.48-0.67,3.06-2.05c-1.44-0.04-2.62-0.58-3.76-1.4
	c0.74-0.45,1.58-0.73,1.77-1.65c-0.6,0-1.21,0.07-1.78-0.02c-0.59-0.1-1.08-0.46-1.41-1.11c0.57-0.14,1.1-0.27,1.63-0.4
	c0.01-0.06,0.02-0.11,0.03-0.17c-0.73-0.21-1.46-0.42-2.24-0.64c0.36-0.22,0.78-0.48,1.23-0.76c-0.85-0.54-1.77-0.56-2.72-0.47
	c0.08-0.69,0.68-0.67,1.11-0.93c-0.98-0.34-1.9-0.29-2.8,0.25c-0.03-0.03-0.07-0.06-0.1-0.09c0.14-0.42,0.29-0.85,0.45-1.33
	c-1.01,0.07-1.95,0.29-2.78,0.87c-0.37-0.42-0.31-0.62,0.46-1.48c-1.21-0.01-2.11,0.62-3.08,1.3c0.03-0.39,0.05-0.67,0.09-1.05
	c-0.66,0.65-1.26,1.23-1.86,1.82c-0.04-0.03-0.08-0.05-0.12-0.08c0.36-1.54-0.57-2.42-1.62-3.31c-0.65,0.76-0.59,1.68-0.74,2.57
	c-0.41,0.03-0.77,0.12-1.07-0.39c-0.17-0.29-0.7-0.37-1.07-0.54c-0.11-0.05-0.29-0.08-0.31-0.16c-0.22-0.72-0.79-0.81-1.41-0.82
	c-0.06,0-0.13,0-0.2,0c-0.22-0.55-0.52-1-1.2-0.99c-0.04,0-0.1-0.03-0.12-0.07c-0.25-0.53-0.73-0.61-1.24-0.65
	c-0.07-0.01-0.16-0.08-0.2-0.15c-0.35-0.64-0.98-0.6-1.63-0.77c0.26,0.61,0.5,1.11,1.07,1.35c0.09,0.04,0.18,0.13,0.22,0.22
	c0.16,0.37,0.53,0.46,0.81,0.67c0.46,0.36,1.16,0.46,1.38,1.11c0,0.02,0.01,0.03,0.02,0.04c0.35,0.23,0.78,0.39,1.02,0.71
	c0.25,0.34,0.41,0.72,0.85,0.84c0.24,0.07,0.32,0.2,0.4,0.44c0.1,0.28,0.34,0.58,0.6,0.73c0.53,0.31,0.65,0.49,0.48,1.11
	c-0.37,1.33-0.98,2.55-1.84,3.62c-1.02,1.27-2.14,2.47-3.19,3.72c-0.28,0.33-0.52,0.7-0.71,1.08c-0.51,1.02-0.16,2.12,0.83,2.69
	c0.32,0.18,0.6,0.43,0.93,0.58c0.72,0.34,1.51,0.18,2.09-0.48c0.35-0.4,0.73-0.65,1.22-0.75c0.11-0.02,0.22-0.05,0.31-0.11
	c0.77-0.51,1.61-0.66,2.52-0.7c0,0,0,0,0.01,0c0.96-0.04,1.86-0.38,2.56-1.2c0.01-0.01,0.02-0.02,0.03-0.03c0,0,0,0,0,0
	c1.29-0.96,2.53-2.57,2.87-5.29c0,0,0.58,4.61-2.37,6.56c0.67,1.9,0.91,3.81,0.38,5.86c1.16,0.05,2.26-0.1,3.29-0.55
	c0.69-0.3,1.34-0.68,1.99-1.06c1.62-0.96,3.38-1.34,5.23-1.35c0.49,0,0.82-0.13,1.14-0.52c1.06-1.25,2.17-2.45,3.26-3.67
	c0.11-0.12,0.2-0.24,0.4-0.47C-41.99,40.13-43.28,39.78-44.62,39.05z M-59.82,34.62c-0.25-0.3-0.04-0.89,0.47-1.3
	c0.51-0.41,1.12-0.5,1.37-0.2c0.25,0.3,0.04,0.89-0.47,1.3C-58.96,34.83-59.57,34.92-59.82,34.62z"/>
<g id="character" display="none">
	<path display="inline" fill="#FFFFFF" d="M-82.98,1.91c-0.82,0.05-1.62,0.29-2.51,0.56c-0.1,0.03-0.19,0.06-0.29,0.09
		c-0.95,0.3-1.93,0.61-2.96,0.76c-0.23,0.03-0.44,0.06-0.65,0.09c0,0.01,0,0.03,0,0.04c-0.05,0.65,0.14,1.23,0.46,1.78
		c0.97,1.65,2.7,2.21,4.45,1.73c0.83-0.23,1.51-0.76,2.02-1.47c0.47-0.65,0.69-1.36,0.6-2.16c-0.02-0.34-0.02-0.68-0.06-1.02
		c-0.01-0.14-0.07-0.28-0.13-0.42c-0.01-0.02-0.02-0.04-0.03-0.06c-0.21,0.02-0.42,0.03-0.62,0.04C-82.78,1.9-82.88,1.9-82.98,1.91z
		"/>
	<path display="inline" fill="#FFFFFF" d="M-80.78,13.94c0.25,0,0.48,0,0.74,0c0,0.7,0,1.38,0,2.06c0,0.12,0,0.24,0,0.36l3.31,0
		c0-1.09,0-2.17,0-3.26c0-0.32-0.02-0.64-0.06-0.95c-0.17-1.17-0.69-2.17-1.57-2.96c-0.75-0.68-1.61-1.15-2.64-1.21
		c-1.01-0.06-2.02-0.1-3.04-0.09c-2.02,0.01-4.03,0.05-6.05,0.08c-1.07,0.01-1.98,0.43-2.77,1.13c-1.1,0.96-1.66,2.16-1.65,3.65
		c0.01,1.21-0.02,2.42-0.04,3.62l3.34,0c0-0.71,0-1.43,0-2.14c0-0.09,0-0.18,0-0.29c0.25,0,0.48,0,0.74,0c0,0.12,0,0.22,0,0.32
		c0,0.7,0,1.4,0,2.1l9.67,0c0-0.72,0-1.45,0-2.17C-80.79,14.1-80.78,14.02-80.78,13.94z"/>
	<path display="inline" fill="#FFFFFF" d="M-78.16-0.63c-0.08-0.35-0.29-0.54-0.64-0.61c-0.3-0.06-0.59-0.03-0.87,0.06
		c-0.59,0.18-1.19,0.36-1.79,0.54c-0.12-0.24-0.2-0.48-0.34-0.68c-0.53-0.73-0.9-1.56-1.31-2.36c-0.22-0.43-0.29-0.9-0.16-1.38
		c0.05-0.2-0.01-0.37-0.13-0.53c-0.15-0.22-0.3-0.45-0.42-0.69c-0.16-0.32-0.28-0.65-0.42-0.98c-0.23-0.56-0.32-0.48,0.24-0.82
		c0.01,0,0.01-0.01,0.02-0.01c0.16-0.09,0.21-0.23,0.18-0.4c-0.01-0.07-0.03-0.14-0.04-0.21c-0.05-0.21-0.03-0.24,0.19-0.25
		c0.35-0.01,0.71,0,1.06-0.04c0.29-0.03,0.58-0.09,0.86-0.17c0.24-0.07,0.27-0.2,0.08-0.37c-0.18-0.16-0.38-0.3-0.6-0.39
		c-0.25-0.11-0.52-0.17-0.79-0.24c-0.48-0.13-0.96-0.26-1.36-0.6c-0.09-0.08-0.27-0.1-0.41-0.09c-0.4,0.05-0.79,0.13-1.18,0.21
		c-0.57,0.12-0.91,0.47-1.02,1.04c-0.07,0.35-0.14,0.71-0.24,1.05c-0.03,0.11-0.14,0.23-0.24,0.27c-0.29,0.12-0.49,0.3-0.58,0.6
		c-0.05,0.18-0.11,0.35-0.15,0.53c-0.11,0.47-0.3,0.89-0.7,1.2c-0.21,0.17-0.29,0.41-0.26,0.67c0.03,0.23,0.09,0.46,0.15,0.69
		c0.11,0.42,0.15,0.84-0.01,1.26c-0.07,0.19-0.12,0.41-0.13,0.61c-0.03,0.35-0.16,0.64-0.4,0.9c-0.24,0.27-0.33,0.59-0.28,0.95
		c0.05,0.36,0.11,0.71,0.13,1.07c0.02,0.36-0.18,0.59-0.54,0.59c-0.43,0-0.86-0.05-1.29-0.1c-0.44-0.05-0.87-0.16-1.31-0.06
		c-0.49,0.11-0.93,0.32-1.22,0.76c-0.15,0.24-0.13,0.46,0.06,0.66c0.08,0.08,0.17,0.17,0.28,0.22c0.49,0.21,0.98,0.41,1.51,0.49
		c1.14,0.16,2.27,0.07,3.39-0.11c1.08-0.17,2.12-0.51,3.16-0.83c0.87-0.27,1.74-0.53,2.66-0.59c0.45-0.03,0.9-0.03,1.33-0.13
		c0.94-0.22,1.88-0.5,2.81-0.76c0.14-0.04,0.26-0.12,0.38-0.2C-78.19-0.03-78.09-0.28-78.16-0.63z"/>
</g>
<g id="region" display="none">
	<path display="inline" fill="#FFFFFF" d="M21.33,5.12c-0.52-0.18-1.05-0.24-1.58-0.33c1.26-1.02,2.73-1.33,4.32-1.25
		c0.35,0.02,0.87,0.4,1,0.06c0.13-0.35-0.42-0.65-0.72-0.92c-1.11-0.99-2.36-1.68-3.9-1.44c-1.86,0.3-3.21,1.31-3.93,3.09
		c-0.08,0.2-0.08,0.5-0.43,0.18C13.9,2.55,11.43,2.51,9.24,4.4c-0.7,0.61-1.28,1.32-1.67,2.22c1.67-0.75,3.35-1.01,5.1-0.45
		c-4.17,2.32-4.92,6.2-3.27,10.15c0.08,0.18,0.11,0.48,0.33,0.48c0.25,0,0.23-0.3,0.29-0.48c0.47-1.36,1.07-2.66,1.85-3.88
		c1.01-1.59,2.24-2.99,3.69-4.19c0.02-0.03,0.05-0.06,0.08-0.09c0.2-0.2,0.42-0.39,0.6-0.61c0.39-0.48,0.85-0.51,1.36-0.26
		c1.61,0.26,3.04,0.94,4.35,1.9c1.26,0.92,2.25,2.08,3.04,3.43c0.07,0.12,0.11,0.31,0.29,0.27c0.17-0.04,0.17-0.22,0.18-0.36
		c0.03-0.5,0.07-1,0.06-1.49C25.49,8.12,23.99,6.04,21.33,5.12z"/>
	<path display="inline" fill="#FFFFFF" d="M18.99,19.52c0.04-0.42,0.09-0.85,0.13-1.27c0.03-0.38,0.06-0.76,0.09-1.14l0,0
		c0.09-0.57,0.06-1.15,0.04-1.72c0.03-0.5,0.05-1-0.03-1.49h0c-0.03-0.47-0.03-0.93-0.17-1.39c-0.01-0.48-0.1-0.95-0.26-1.41
		c-0.04-0.43-0.17-0.83-0.33-1.23C18.37,9.39,18.2,8.93,18,8.49c-0.04-0.12-0.07-0.25-0.11-0.37c-0.52-0.24-0.98-0.21-1.36,0.26
		c-0.18,0.22-0.4,0.41-0.6,0.61c-0.03,0.03-0.06,0.06-0.08,0.09c0.11,0.47,0.22,0.93,0.33,1.4c0.04,0.3,0.09,0.61,0.13,0.91
		c0.02,0.17,0.04,0.34,0.06,0.51c0.03,0.02,0.03,0.05,0.01,0.07c0.02,0.3,0.04,0.6,0.06,0.89c0.03,0.33,0.05,0.67,0.08,1
		c-0.01,0.29-0.01,0.59-0.02,0.88c0.03,0.03,0.03,0.06-0.01,0.09c-0.02,0.17-0.04,0.34-0.05,0.51c-0.06,0.37-0.12,0.74-0.18,1.11
		c-0.13,0.47-0.25,0.93-0.38,1.4c-0.13,0.36-0.27,0.73-0.4,1.09c-0.19,0.47-0.38,0.94-0.58,1.41c-0.16,0.26-0.31,0.52-0.47,0.78
		c-0.16,0.59,0.13,0.94,0.63,1.19c0.51,0.25,1.05,0.38,1.6,0.48c1.15,0.2,1.57-0.02,1.99-1.08c0.02-0.2,0.04-0.41,0.07-0.61
		C18.88,20.6,18.94,20.06,18.99,19.52"/>
	<path display="inline" fill="#FFFFFF" d="M4.52,7.81c-1.13,0-2.05,0.91-2.05,2.04c0,1.14,0.9,2.05,2.03,2.07
		C5.63,11.93,6.56,11,6.56,9.86C6.56,8.73,5.65,7.81,4.52,7.81z"/>
	<path display="inline" fill="#FFFFFF" d="M24,24.54c-0.41-0.44-0.82-0.87-1.33-1.2c-0.98-0.63-2.05-1.06-3.16-1.38l-0.04,0.1
		c-0.33,0.84-0.85,1.7-2.15,1.7c-0.23,0-0.49-0.03-0.8-0.08c-0.51-0.09-1.17-0.23-1.82-0.55c-1.19-0.58-1.22-1.52-1.13-2.03
		c-1.28-0.07-2.57-0.07-3.85,0.05c-2.26,0.21-4.46,0.61-6.16,2.32c-0.17,0.27-0.34,0.54-0.52,0.82C3,24.41,2.96,24.53,2.94,24.65
		c-0.21,0.92,0.02,1.32,0.93,1.58c1.37,0.38,2.79,0.45,4.2,0.49c4.04,0.11,8.07,0.14,12.11-0.11c1.02-0.06,2.04-0.14,3.02-0.43
		C24.22,25.89,24.4,25.51,24,24.54z"/>
</g>
<g id="icon" display="none">
	<g display="inline">
		<path fill="none" d="M9.42,11.94L9.42,11.94c-0.03-0.01-0.06-0.02-0.09-0.03C9.36,11.93,9.39,11.93,9.42,11.94z"/>
		<path fill="none" d="M10.43,15.1c0,0.01,0,0.02,0,0.03C10.43,15.12,10.43,15.11,10.43,15.1L10.43,15.1z"/>
		<path fill="none" d="M12.31,10.9c-0.02,0-0.04,0-0.06,0C12.26,10.9,12.29,10.9,12.31,10.9L12.31,10.9z"/>
		<path fill="none" d="M9.65,19.71c0.12,0.05,0.25,0.01,0.38-0.02C9.9,19.71,9.76,19.75,9.65,19.71z"/>
		<path fill="none" d="M15.32,17.78c0-0.02,0-0.04,0-0.06C15.32,17.73,15.32,17.75,15.32,17.78c0.04,0.02,0.08,0.04,0.12,0.06
			C15.4,17.82,15.36,17.8,15.32,17.78z"/>
		<path fill="none" d="M10.22,19.68c-0.06-0.01-0.13,0-0.19,0.01C10.09,19.68,10.15,19.67,10.22,19.68
			c0.02-0.08,0.04-0.16,0.06-0.24C10.26,19.52,10.24,19.6,10.22,19.68z"/>
		<path fill="none" d="M10.2,10.63c0.04-0.01,0.06,0.01,0.07,0.04C10.26,10.64,10.24,10.63,10.2,10.63z"/>
		<path fill="none" d="M19.18,18.57c0-0.06,0-0.12,0-0.18l0,0C19.18,18.45,19.18,18.51,19.18,18.57z"/>
		<path fill="none" d="M20.35,19.36c-0.02,0-0.03,0.01-0.05,0.01l0,0C20.32,19.37,20.34,19.37,20.35,19.36
			c0-0.04,0.01-0.07,0.03-0.1C20.37,19.29,20.35,19.33,20.35,19.36z"/>
		<path fill="none" d="M20.6,14.83c0.02-0.17,0.06-0.28,0.14-0.33C20.66,14.54,20.62,14.65,20.6,14.83
			c-0.08-0.02-0.13-0.06-0.17-0.1l0,0C20.47,14.77,20.52,14.8,20.6,14.83z"/>
		<path fill="none" d="M19.69,15.19c0.01,0.04,0.03,0.09,0.05,0.13c0.14,0,0.29,0,0.43,0c-0.14,0-0.29,0-0.43,0
			C19.72,15.28,19.7,15.24,19.69,15.19z"/>
		<path fill="none" d="M16.11,20.05L16.11,20.05c0.06,0,0.12,0,0.18,0c0.08,0.12,0.12,0.24,0.13,0.37
			c-0.01-0.13-0.05-0.25-0.13-0.37C16.24,20.05,16.17,20.05,16.11,20.05z"/>
		<path fill="#E9B584" d="M13.72,21.4c-0.13-0.23-0.24-0.1-0.34,0.02c-0.07,0.08-0.1,0.18-0.24,0.11c-0.18-0.11-0.23-0.01-0.21,0.12
			c0.19,0.03,0.38,0.05,0.57,0.07c0-0.02-0.01-0.03-0.02-0.04C13.48,21.51,13.57,21.43,13.72,21.4z"/>
		<path fill="#E9B584" d="M14.56,21.17c0.04-0.05,0.05-0.13,0.07-0.2c-0.1-0.07-0.2-0.14-0.26-0.23c-0.25,0.03-0.51,0.03-0.78,0
			c0.05,0.12,0.17,0.14,0.43,0.12c0.12-0.01,0.26-0.05,0.33,0.09c0.06,0.13-0.08,0.14-0.14,0.19c-0.05,0.04-0.08,0.11-0.06,0.17
			c0.1,0.36-0.12,0.28-0.31,0.22c0,0.01,0,0.02-0.01,0.03c-0.02,0.06-0.05,0.12-0.09,0.17c0.1,0,0.2,0.02,0.31,0.02
			c0.27,0,0.54-0.02,0.81-0.05c-0.05-0.01-0.1-0.02-0.15-0.05C14.53,21.53,14.37,21.41,14.56,21.17z"/>
		<path fill="#E9B584" d="M12.19,19.84c-0.02,0.11-0.04,0.22,0.03,0.34c0.04,0.07-0.02,0.16-0.1,0.2c-0.08,0.05-0.16,0.02-0.22-0.04
			c-0.05-0.06-0.1-0.13-0.13-0.2c-0.13-0.24-0.39-0.37-0.68-0.31c-0.22,0.04-0.42,0.06-0.65,0c-0.25-0.06-0.56-0.05-0.66,0.3
			c-0.02,0.07-0.07,0.1-0.14,0.08c-0.05-0.01-0.09-0.06-0.07-0.08c0.21-0.25-0.11-0.34-0.15-0.52c-0.21,0.01-0.41,0.01-0.61-0.02
			c0.6,0.59,1.3,1.07,2.06,1.43c0.18-0.01,0.36-0.06,0.5-0.19c0.06-0.05,0.13-0.06,0.2-0.01c0.06,0.05,0.08,0.14,0.04,0.2
			c-0.06,0.09-0.07,0.19-0.08,0.28c0.12,0.04,0.24,0.09,0.36,0.12c0-0.01,0-0.03,0-0.04c-0.11-0.29-0.01-0.6,0.24-0.75
			c0.17-0.1,0.31-0.13,0.35,0.13c0.03,0.26,0.22,0.24,0.39,0.18c0.13-0.05,0.24-0.16,0.06-0.29c-0.04-0.03-0.07-0.05-0.1-0.08
			C12.53,20.42,12.31,20.18,12.19,19.84z M11.18,20.76c-0.04,0-0.07,0-0.07-0.01c-0.06-0.19-0.14-0.38-0.16-0.58
			c-0.01-0.07,0.11-0.21,0.25-0.14c0.19,0.09,0.44,0.17,0.4,0.43C11.57,20.67,11.29,20.61,11.18,20.76z"/>
		<path fill="#EAB686" d="M15.39,22.07c-0.01,0-0.03,0-0.04,0.01C15.37,22.08,15.38,22.08,15.39,22.07z"/>
		<path fill="#EAB686" d="M16.67,21.01c-0.07,0.04-0.14,0.1-0.22,0.05c-0.1-0.06-0.06-0.15-0.05-0.24c0.02-0.13,0.04-0.26,0.03-0.39
			c-0.01-0.13-0.05-0.25-0.13-0.37c-0.06,0-0.12,0-0.18,0c-0.01,0.01-0.02,0.02-0.04,0.03c-0.09,0.06-0.18,0.1-0.27,0.15
			c0.02,0.35,0,0.36-0.37,0.36c-0.03,0.14-0.15,0.12-0.25,0.12c-0.17,0.12-0.31,0.3-0.55,0.25c-0.02,0.07-0.03,0.15-0.07,0.2
			c-0.2,0.24-0.04,0.36,0.15,0.48c0.05,0.03,0.1,0.04,0.15,0.05c0.88-0.09,1.71-0.35,2.47-0.72C17.14,20.82,16.98,20.85,16.67,21.01
			z"/>
		<path fill="#EAB686" d="M17.57,20.86c0.06-0.03,0.11-0.06,0.17-0.1C17.67,20.79,17.61,20.81,17.57,20.86z"/>
		<path fill="#FCD0A6" d="M12.37,7.15c0.44-0.14,0.86,0.13,0.86,0.55c0,0.04,0,0.08,0,0.12c0.08,0,0.16,0,0.25,0
			c0.04-0.33,0.19-0.11,0.31-0.06c0.04-0.02,0.08-0.04,0.12-0.06c0.05-0.15,0.14-0.14,0.25-0.06c0.06,0,0.12,0,0.18,0
			c0-0.2,0.02-0.36,0.29-0.23c0.14,0.07,0.23,0.02,0.26-0.14c0.03-0.15,0.1-0.23,0.24-0.08c0.17,0.18,0.29-0.04,0.44-0.05
			c0.1-0.06,0.18-0.14,0.31-0.12c0-0.02,0.01-0.03,0.02-0.04c-0.59-0.15-1.2-0.23-1.83-0.23c-0.62,0-1.22,0.08-1.8,0.23
			c0,0.02-0.01,0.03-0.01,0.05C12.29,7.07,12.33,7.11,12.37,7.15z"/>
		<path fill="#EDBC8E" d="M20.97,13.85c-0.03,0.14-0.14,0.12-0.24,0.12c-0.17,0.01-0.39,0.05-0.39,0.24c0.11,0.09,0.2,0.23,0.3,0.33
			c-0.07,0.05-0.14,0.12-0.21,0.19c0.04,0.04,0.09,0.08,0.17,0.1c0.02-0.17,0.06-0.28,0.14-0.33c0.08-0.04,0.19-0.03,0.33,0.05
			c0.05,0.03,0.11,0.08,0.16,0.08c0.25,0.01,0.21,0.15,0.16,0.31c-0.07,0.22-0.06,0.42,0.03,0.6c0.07-0.42,0.12-0.85,0.12-1.3
			c0-0.36-0.03-0.71-0.08-1.06c-0.05,0.05-0.08,0.12-0.1,0.23C21.34,13.6,21.24,13.84,20.97,13.85z"/>
		<path fill="#E8B381" d="M13.14,21.53c0.13,0.08,0.17-0.03,0.24-0.11c0.1-0.12,0.21-0.25,0.34-0.02c0.04,0.04,0.08,0.08,0.12,0.12
			c0.2,0.06,0.41,0.14,0.31-0.22c-0.02-0.06,0.01-0.12,0.06-0.17c0.06-0.05,0.21-0.06,0.14-0.19c-0.07-0.14-0.21-0.1-0.33-0.09
			c-0.26,0.02-0.37,0-0.43-0.12c-0.15-0.02-0.29-0.02-0.44-0.06c-0.12-0.03-0.22-0.07-0.32-0.11c0.03,0.03,0.06,0.06,0.1,0.08
			c0.18,0.13,0.07,0.24-0.06,0.29c-0.17,0.06-0.36,0.08-0.39-0.18c-0.03-0.26-0.18-0.23-0.35-0.13c-0.25,0.16-0.35,0.46-0.24,0.75
			c0.01,0.02,0,0.03,0,0.04c0.33,0.1,0.67,0.17,1.02,0.22C12.91,21.51,12.96,21.42,13.14,21.53z"/>
		<path fill="#EDBC8E" d="M6.84,15.69c0.06,0,0.12,0,0.18,0c0.03-0.29,0.31-0.43,0.47-0.63c0.18-0.22,0.22-0.38,0.09-0.6
			c-0.32,0.06-0.65-0.17-0.7-0.48c-0.01-0.08,0.04-0.11,0.1-0.13c0.16-0.06,0.27-0.2,0.42-0.29c0.15-0.08,0.28-0.24,0.18-0.46
			c-0.17-0.04-0.28,0.09-0.43,0.12c-0.07,0.2-0.19,0.1-0.31,0.06c-0.02,0-0.04,0-0.06,0c-0.01,0.23-0.06,0.35-0.19,0.4
			c-0.01,0.18-0.03,0.37-0.03,0.55c0,0.43,0.04,0.84,0.11,1.25C6.74,15.54,6.79,15.6,6.84,15.69z"/>
		<path fill="#ECB988" d="M6.67,15.5c0.02,0.09,0.02,0.18,0.04,0.27c0.04-0.03,0.08-0.05,0.12-0.08C6.79,15.6,6.74,15.54,6.67,15.5z
			"/>
		<path fill="#ECB887" d="M6.78,13.29c-0.02-0.02-0.04-0.04-0.06-0.06c-0.03-0.01-0.05,0-0.08,0c-0.02,0.15-0.04,0.3-0.05,0.46
			C6.72,13.64,6.77,13.52,6.78,13.29z"/>
		<path fill="#F1BD8D" d="M6.66,13.11c-0.01,0.04-0.01,0.08-0.02,0.12c0.03,0,0.05-0.01,0.08,0C6.7,13.19,6.68,13.15,6.66,13.11z"/>
		<path fill="#FCCCA0" d="M16.19,6.59c0.02,0.01,0.04,0.01,0.06,0.02C16.23,6.6,16.21,6.59,16.19,6.59z"/>
		<path fill="#010101" d="M22.13,13.35c0-0.02,0-0.04,0-0.06c-0.02,0.01-0.04,0.01-0.05,0.02C22.1,13.32,22.11,13.34,22.13,13.35z"
			/>
		<path fill="#010101" d="M22.13,15.32c0-0.02,0-0.04,0-0.06c-0.02,0.02-0.05,0.03-0.05,0.04C22.08,15.33,22.11,15.34,22.13,15.32z"
			/>
		<path fill="#EBB888" d="M20.72,17.16c-0.08-0.07-0.05-0.17-0.03-0.26c0.01-0.04,0.01-0.08,0.01-0.12
			c-0.42,0.12-0.46,0.2-0.32,0.56c0.05,0.14,0.02,0.23-0.1,0.31c-0.26,0.17-0.55,0.24-0.85,0.3c0,0.04,0,0.08,0,0.12
			c0.12,0.16,0.29,0.12,0.45,0.12c0.08,0,0.17-0.01,0.21,0.09c0.03,0.07,0.02,0.14-0.03,0.2c-0.07,0.08-0.14,0.06-0.21,0.01
			c-0.08-0.06-0.16-0.05-0.2,0.04c-0.05,0.12-0.06,0.24,0.03,0.35c0.05,0.05,0.08,0.11,0.12,0.16c0.19-0.23,0.37-0.47,0.54-0.73
			c-0.01-0.02-0.02-0.04-0.04-0.06c-0.05-0.06-0.04-0.11,0-0.16c0.05-0.06,0.11-0.09,0.19-0.08c0.01,0,0.01,0.01,0.02,0.01
			c0.17-0.29,0.32-0.58,0.45-0.89C20.89,17.19,20.8,17.23,20.72,17.16z"/>
		<path fill="#F1BD8D" d="M18.69,19.8c-0.1,0.18-0.25,0.33-0.29,0.54c0.25-0.18,0.5-0.38,0.73-0.59c-0.07,0.01-0.14,0.03-0.19,0.09
			C18.84,19.93,18.76,19.92,18.69,19.8z"/>
		<path fill="#EDBB8D" d="M20.3,18.11c-0.05,0.05-0.05,0.1,0,0.16c0.02,0.02,0.02,0.04,0.04,0.06c0.06-0.09,0.12-0.19,0.18-0.29
			c-0.01,0-0.01-0.01-0.02-0.01C20.42,18.02,20.35,18.05,20.3,18.11z"/>
		<path fill="#F6C69A" d="M20.76,12.3c-0.06,0.13-0.16,0.24-0.31,0.18c-0.18-0.06-0.46-0.06-0.51-0.28
			c-0.06-0.31-0.25-0.26-0.45-0.26c-0.07,0.17-0.1,0.38-0.37,0.25c-0.16,0.12-0.16,0.24,0,0.37c0.07,0.05,0.15,0.11,0.09,0.19
			c-0.07,0.1-0.16,0.04-0.24-0.01c-0.02-0.01-0.03-0.02-0.05-0.03c-0.13-0.1-0.4-0.14-0.31-0.34c0.08-0.2,0.2-0.46,0.52-0.42
			c0.04-0.18,0.14-0.37,0-0.55c-0.08-0.01-0.15-0.05-0.18-0.12c-0.39-0.05-0.54,0.07-0.57,0.45c-0.01,0.1-0.04,0.22-0.14,0.2
			c-0.16-0.03-0.32-0.11-0.37-0.28c-0.04-0.11,0.07-0.12,0.15-0.13c0.1-0.01,0.18-0.05,0.15-0.17c-0.04-0.2-0.16-0.35-0.35-0.42
			c-0.08-0.03-0.16-0.02-0.23,0.05c0.16,0.26,0.09,0.43-0.19,0.51c-0.03,0.01-0.08,0.02-0.08,0c-0.23-0.4-0.76-0.51-0.95-0.95
			c-0.32,0.08-0.29,0.35-0.33,0.59c-0.01,0.07,0.06,0.1,0.12,0.12c0.09,0.03,0.16-0.01,0.21-0.08c0.09-0.13,0.21-0.21,0.31-0.05
			c0.09,0.14,0.19,0.3-0.04,0.44c-0.14,0.08-0.41,0.11-0.22,0.4c0.04,0.06-0.04,0.11-0.11,0.11c-0.1,0.01-0.18-0.01-0.22-0.12
			c-0.05-0.13-0.09-0.27-0.14-0.4c-0.1-0.28-0.72-0.47-0.96-0.29c-0.03,0.02-0.07,0.07-0.06,0.1c0.1,0.4-0.33,0.61-0.36,0.97
			c0.04,0.06,0.07,0.13,0.07,0.19c0.01,0.16-0.01,0.31-0.03,0.46c0.01,0,0.03,0,0.04-0.01c0.12-0.05,0.24-0.12,0.1-0.27
			c-0.17-0.18-0.06-0.26,0.11-0.32c0.07-0.02,0.14-0.06,0.21-0.05c0.13,0.02,0.31-0.06,0.39,0.08c0.1,0.17-0.12,0.2-0.19,0.29
			c-0.07,0.1-0.15,0.19-0.17,0.32c-0.05,0.31,0.05,0.44,0.37,0.42c0.1-0.01,0.16,0.01,0.2,0.1c0.03,0.08-0.02,0.11-0.08,0.13
			c0,0.04,0,0.08,0,0.12c0.24-0.08,0.49-0.14,0.76-0.15c1.02-0.06,2.02,0.05,3,0.27c-0.02-0.05-0.03-0.11-0.04-0.17
			c-0.03-0.17,0.08-0.27,0.21-0.28c0.13-0.01,0.22,0.1,0.2,0.25c-0.01,0.05-0.02,0.1-0.01,0.15c0.01,0.04,0,0.09-0.02,0.13
			c0.16,0.04,0.31,0.08,0.47,0.12c-0.05-0.12-0.09-0.25-0.21-0.34c-0.16-0.11-0.16-0.19,0.06-0.25c0.29-0.07,0.33-0.19,0.11-0.38
			c-0.16-0.14-0.02-0.31-0.12-0.45c-0.04-0.06,0.07-0.08,0.12-0.08c0.18-0.02,0.34,0.03,0.5,0.12c0.17,0.09,0.2,0.2,0.1,0.37
			c-0.25,0.43-0.21,0.53,0.28,0.74c0.28-0.01,0.37-0.24,0.4-0.43c0.02-0.11,0.05-0.18,0.1-0.23c-0.04-0.31-0.11-0.62-0.19-0.92
			c-0.04-0.01-0.09-0.03-0.13-0.06C20.97,12.09,20.85,12.11,20.76,12.3z M17.11,12.9c-0.08,0.07-0.11,0.17-0.13,0.27
			c-0.03,0.15-0.07,0.32-0.28,0.3c-0.15-0.01-0.16-0.14-0.15-0.26c0.01-0.25,0.22-0.09,0.37-0.16c-0.16-0.15-0.35-0.25-0.32-0.48
			c0.01-0.1-0.08-0.1-0.15-0.08c-0.09,0.01-0.14-0.03-0.13-0.12c0.01-0.09,0.09-0.12,0.16-0.09c0.17,0.09,0.38,0.1,0.54,0.19
			C17.16,12.54,17.32,12.7,17.11,12.9z"/>
		<path fill="#F6C69A" d="M12.78,11.39c0.11,0.15,0.26,0.28,0.26,0.49c0.05,0.06,0.12,0.06,0.18,0.06c0.1,0,0.16,0.08,0.25,0.12
			c0.13,0.16,0.24,0.34,0.48,0.37c0.08,0.01,0.13,0.1,0.1,0.19c-0.05,0.12,0.01,0.22,0.03,0.33c0.04-0.15,0.07-0.29,0.08-0.45
			c0-0.02,0.02-0.05,0.02-0.07c-0.07-0.05-0.13-0.11-0.13-0.19c-0.03-0.46-0.29-0.58-0.7-0.56c-0.2,0.01-0.3-0.1-0.3-0.3
			c-0.07,0-0.14,0-0.18-0.06c-0.01,0-0.01,0-0.02,0C12.82,11.35,12.8,11.37,12.78,11.39z"/>
		<path fill="#F6C69A" d="M19.72,15.06c0.03-0.04,0.03-0.07,0.03-0.11c-0.1-0.01-0.2-0.02-0.28-0.01c0,0,0,0.01,0,0.01
			c0,0.12-0.06,0.21-0.18,0.21c-0.11,0.01-0.12-0.07-0.11-0.15c-0.32,0.15-0.53,0.47-0.71,0.82c0.07,0.04,0.16,0.02,0.25-0.01
			c0.37-0.14,0.45-0.1,0.62,0.25c0.04,0.09,0.04,0.26,0.21,0.17c0.12-0.07,0.03-0.17-0.03-0.26c-0.2-0.28-0.15-0.4,0.22-0.48
			c0-0.06,0-0.12,0-0.18c-0.02-0.04-0.04-0.08-0.05-0.13S19.69,15.11,19.72,15.06z"/>
		<path fill="#F6C69A" d="M17.17,14.69c-0.04,0.16-0.09,0.34-0.01,0.51c0.06,0.14,0.12,0.29,0.18,0.43
			c0.04,0.08,0.12,0.14,0.12,0.25c0.01,0,0.01,0,0.02,0c0.25-0.43,0.55-0.83,0.97-1.16c-0.02-0.06-0.03-0.13-0.05-0.19
			c-0.41-0.01-0.82-0.03-1.24-0.05C17.19,14.54,17.19,14.6,17.17,14.69z"/>
		<path fill="#FCCEA4" d="M17.51,8.48c-0.03,0.03-0.08,0.07-0.09,0.11c-0.03,0.09,0.29,0.68,0.38,0.69
			c0.13,0.02,0.17,0.11,0.24,0.18c0.21,0.18,0.35,0.29-0.03,0.44c-0.12,0.04-0.08,0.26,0,0.39c0.04,0.08,0.12,0.14,0.13,0.24
			c0,0.06,0,0.12,0,0.18c0.26,0,0.39,0.3,0.66,0.3c0.08,0,0.12,0.15,0.13,0.26c0.04,0.08,0.1,0.12,0.18,0.12
			c0.2,0,0.28,0.1,0.22,0.29c-0.05,0.15-0.01,0.24,0.15,0.26c0.2,0,0.39-0.04,0.45,0.26c0.04,0.22,0.32,0.21,0.51,0.28
			c0.15,0.05,0.24-0.05,0.31-0.18c0.09-0.19,0.21-0.21,0.39-0.09c0.04,0.03,0.09,0.04,0.13,0.06c-0.49-1.81-1.65-3.35-3.19-4.34
			C17.98,8.18,17.7,8.3,17.51,8.48z"/>
		<path fill="#FCCCA0" d="M12.92,7.42c-0.14-0.08-0.26-0.15-0.32,0.08c-0.03,0.12-0.12,0.19-0.24,0.2
			c-0.13,0.01-0.22-0.04-0.24-0.18c-0.09,0-0.17-0.08-0.29-0.02C11.92,7.66,12,7.82,12.1,7.97c0.14,0.21,0.07,0.38-0.18,0.4
			c-0.12,0.01-0.25,0.01-0.37,0c-0.15,0-0.23,0.05-0.22,0.22c0.01,0.13,0.06,0.22,0.21,0.17c0.1-0.03,0.19,0,0.24,0.09
			c0.06,0.09-0.04,0.15-0.09,0.21c-0.09,0.11-0.1,0.18-0.05,0.23c0.18-0.21,0.38-0.4,0.62-0.57c0.92-0.67,1.95-0.9,3.06-0.58
			c0.23,0.07,0.41,0.18,0.56,0.32c0.02-0.05,0.05-0.1,0.11-0.15c0.08-0.06,0.14-0.12,0.1-0.23c-0.03-0.1-0.01-0.19,0.08-0.24
			c0.1-0.05,0.21-0.04,0.28,0.04c0.22,0.24,0.44,0.48,0.66,0.72c0.04,0.05,0.05,0.11,0.01,0.17c-0.06,0.09-0.14,0.03-0.22,0.03
			c-0.12-0.01-0.24-0.24-0.36-0.03c-0.09,0.16-0.08,0.33,0.06,0.48c0.09,0.1,0.08,0.26,0.19,0.34C16.88,9.55,16.86,9.34,17,9.4
			c0.17,0.07,0.38,0.13,0.45,0.33c0.05,0.14-0.02,0.25-0.12,0.35c-0.1,0.1-0.21,0.15-0.35,0.13l0,0c0.19,0.32,0.24,0.32,0.43,0.01
			c0.05-0.08,0.1-0.15,0.19-0.2c0.14,0.02,0.2,0.11,0.25,0.23c0.05,0.14,0.15,0.24,0.3,0.26c-0.01-0.1-0.08-0.16-0.13-0.24
			c-0.07-0.13-0.12-0.34,0-0.39c0.38-0.15,0.24-0.25,0.03-0.44C17.97,9.4,17.93,9.3,17.8,9.29c-0.09-0.01-0.41-0.6-0.38-0.69
			c0.01-0.04,0.05-0.08,0.09-0.11c0.19-0.19,0.47-0.3,0.57-0.55c-0.51-0.33-1.06-0.59-1.64-0.79c-0.03,0.04-0.05,0.07-0.1,0.12
			c-0.09,0.11-0.13,0.25-0.31,0.28c0-0.19,0.03-0.4-0.16-0.52c-0.13-0.02-0.21,0.06-0.31,0.12c0,0.02,0.01,0.04,0.01,0.06
			c0.02,0.13,0.26,0.2,0.17,0.32c-0.09,0.13-0.26,0-0.4-0.01C15,7.49,14.66,7.54,14.33,7.64c-0.06,0-0.12,0-0.18,0
			C14.08,7.72,13.99,7.7,13.9,7.7c-0.04,0.02-0.08,0.04-0.12,0.06c-0.07,0.2-0.21,0.02-0.31,0.06c-0.08,0.14-0.16,0.14-0.25,0
			c0-0.04,0-0.08,0-0.12C13.06,7.68,13.05,7.49,12.92,7.42z"/>
		<path fill="#FCCCA0" d="M13.75,8.99c0.12-0.12,0.27-0.18,0.42-0.24c-0.42-0.04-0.79,0.01-1.11,0.16c0.07,0.03,0.14,0.08,0.21,0.11
			C13.45,9.12,13.6,9.13,13.75,8.99z"/>
		<path fill="#FBC38F" d="M20.22,9.18c0-0.01,0-0.01,0-0.02c0,0-0.01,0-0.01,0.01C20.21,9.17,20.21,9.17,20.22,9.18z"/>
		<path fill="#EABA8C" d="M9.42,19.62c0.02-0.02,0.04-0.04,0.06-0.06c0-0.02,0-0.04,0-0.06c-0.07-0.2-0.12-0.36-0.41-0.26
			c-0.24,0.09-0.45-0.1-0.54-0.3c-0.09-0.2,0.07-0.34,0.27-0.43c0.14-0.06,0.25-0.21,0.44-0.18c-0.05-0.2-0.14-0.39,0.01-0.6
			c0.12-0.17-0.02-0.28-0.2-0.23c-0.15,0.03-0.28,0.12-0.42,0.18c-0.07,0.03-0.14,0.05-0.2-0.01c-0.05-0.05-0.06-0.12-0.03-0.17
			c0.14-0.2,0.05-0.41,0.02-0.62c-0.01-0.07-0.07-0.18,0.07-0.17c0.1,0.01,0.17,0.08,0.15,0.19C8.64,16.95,8.6,17,8.59,17.06
			c-0.03,0.12,0.07,0.16,0.16,0.19c0.12,0.05,0.16-0.02,0.2-0.12c0.11-0.27,0.01-0.59-0.28-0.8c-0.15-0.1-0.28-0.22-0.35-0.38
			c-0.11-0.24-0.23-0.26-0.41-0.08c-0.05,0.05-0.13,0.06-0.2,0.06c-0.23,0.13-0.31,0.46-0.64,0.48c-0.08,0.01-0.07,0.09-0.03,0.17
			c0.12,0.24,0.14,0.34,0.05,0.38c0.39,1,0.98,1.89,1.73,2.63C9.01,19.63,9.21,19.62,9.42,19.62z"/>
		<path fill="#EBB685" d="M7.03,16.59c-0.04-0.08-0.05-0.16,0.03-0.17c0.32-0.02,0.41-0.35,0.64-0.48c0.05-0.25,0.26-0.4,0.37-0.61
			c-0.17-0.27-0.44-0.26-0.6,0.03c-0.1,0.18-0.16,0.41-0.45,0.34c-0.06,0-0.12,0-0.18,0c-0.04,0.03-0.08,0.05-0.12,0.08
			c0.09,0.41,0.21,0.81,0.36,1.2C7.17,16.93,7.15,16.83,7.03,16.59z"/>
		<path fill="#E8B381" d="M11.58,20.82c-0.06-0.05-0.14-0.04-0.2,0.01c-0.15,0.13-0.32,0.17-0.5,0.19c0.22,0.1,0.44,0.19,0.67,0.28
			c0.01-0.09,0.02-0.19,0.08-0.28C11.65,20.97,11.64,20.87,11.58,20.82z"/>
		<path fill="#FCC899" d="M9.67,8.72c0.1,0.05,0.15-0.01,0.19-0.1c0.05-0.1,0.12-0.14,0.22-0.08c0.11,0.06,0.17,0.17,0.11,0.28
			C10,9.15,9.71,9.37,9.42,9.61C9.4,9.75,9.41,9.91,9.23,9.98l0,0c-0.02,0.04-0.04,0.08-0.06,0.12c0,0.06,0,0.12,0,0.18
			c0.35,0.29,0.7,0.59,0.86,1.04c0.04,0.04,0.08,0.08,0.12,0.12c0.12,0.03,0.22,0.01,0.32-0.01c0.02-0.05,0.04-0.11,0.06-0.16
			c0.27-0.73,0.6-1.42,1.11-1.98c-0.05-0.05-0.04-0.12,0.05-0.23c0.05-0.06,0.15-0.11,0.09-0.21c-0.05-0.09-0.14-0.11-0.24-0.09
			c-0.16,0.04-0.2-0.04-0.21-0.17c-0.01-0.16,0.07-0.22,0.22-0.22c0.12,0,0.25,0.01,0.37,0c0.25-0.03,0.32-0.2,0.18-0.4
			c-0.1-0.15-0.17-0.3-0.27-0.47c0.12-0.06,0.2,0.02,0.29,0.02c0.13-0.09,0.26-0.19,0.25-0.37c-0.04-0.04-0.08-0.08-0.12-0.12
			c-0.04,0-0.07-0.01-0.11-0.02c-0.89,0.24-1.72,0.63-2.45,1.16C9.66,8.28,9.63,8.38,9.63,8.5C9.63,8.58,9.58,8.67,9.67,8.72z
			 M10.28,10.77c0,0.04,0,0.08-0.02,0.12c-0.01,0.03-0.04,0.06-0.1,0.06c-0.06,0-0.1-0.03-0.09-0.09c0.02-0.09,0.02-0.2,0.13-0.22
			c0.04-0.01,0.06,0.01,0.07,0.04C10.27,10.7,10.27,10.74,10.28,10.77z"/>
		<path fill="#EFBA88" d="M7.95,10.34c0.06,0.04,0.12,0.08,0.18,0.12c0-0.12,0.06-0.19,0.18-0.18c0.24,0.03,0.43-0.05,0.58-0.24
			c0.09-0.1,0.22-0.07,0.34-0.07l0,0c0.06-0.12,0-0.31,0.18-0.37C9.41,9.14,9.16,8.93,8.72,8.98c-0.33,0.34-0.64,0.71-0.9,1.1
			C7.9,10.13,7.92,10.25,7.95,10.34z"/>
		<path fill="#FCC492" d="M9.42,9.61C9.71,9.37,10,9.15,10.19,8.82c0.07-0.11,0-0.22-0.11-0.28c-0.1-0.06-0.18-0.01-0.22,0.08
			c-0.04,0.08-0.09,0.15-0.19,0.1C9.58,8.67,9.63,8.58,9.63,8.5c0-0.12,0.03-0.23,0.05-0.34C9.34,8.41,9.02,8.68,8.72,8.98
			C9.16,8.93,9.41,9.14,9.42,9.61z"/>
		<path fill="#F1BD8D" d="M7.19,12.21c0.09,0.06,0.18,0.04,0.25-0.04c0.06-0.07,0.08-0.14,0.02-0.22c-0.04-0.05-0.08-0.11-0.01-0.16
			c0.08-0.06,0.16-0.03,0.22,0.04c0.08,0.08,0.12,0.24,0.28,0.11c0.01-0.07,0.05-0.11,0.12-0.12c0.01-0.1,0.05-0.18,0.12-0.25
			c-0.02-0.08-0.04-0.16-0.06-0.25c-0.29,0.14-0.58,0-0.88-0.02c0.17-0.28,0.34-0.53,0.49-0.8c0.05-0.08,0.1-0.15,0.2-0.16
			c-0.02-0.1-0.04-0.21-0.12-0.26c-0.42,0.63-0.75,1.33-0.96,2.08C6.97,12.14,7.08,12.13,7.19,12.21z"/>
		<path fill="#EFB784" d="M15.44,20.6c0.37,0,0.39-0.02,0.37-0.36c-0.15,0.09-0.29,0.18-0.44,0.25
			C15.39,20.52,15.42,20.56,15.44,20.6z"/>
		<path fill="#EFB784" d="M14.95,19.07c-0.02-0.04-0.04-0.08-0.06-0.12c-0.21-0.02-0.52,0.1-0.49-0.31
			c-0.01-0.11-0.09-0.18-0.16-0.25c-0.06-0.07-0.12-0.16-0.06-0.24c0.08-0.11,0.16,0,0.23,0.04c0.08,0.05,0.15,0.09,0.23,0.14
			c0.12,0,0.25,0,0.37,0c0.1-0.09,0.16-0.06,0.18,0.06c0.05,0.06,0.12,0.06,0.18,0.06c0-0.23-0.14-0.44-0.06-0.68
			c0-0.02,0-0.04,0-0.06c-0.44-0.23-0.87-0.28-1.3,0.03c-0.02,0.02-0.06,0.03-0.09,0.03c-0.31-0.1-0.36,0.11-0.39,0.34
			c-0.01,0.06-0.01,0.14-0.09,0.14c-0.1,0-0.09-0.09-0.1-0.16c-0.19,0.01-0.37,0-0.55-0.06c0.02,0.07,0.04,0.15,0.06,0.22
			c0.12-0.03,0.26-0.03,0.38-0.05c-0.02,0.16-0.01,0.33-0.08,0.46c-0.28,0.51-0.11,1.01,0.42,1.23c0.06,0.03,0.13,0.04,0.19,0.06
			c0.14-0.05,0.29-0.09,0.44-0.05c0.1,0.03,0.18-0.01,0.25-0.07c0.13-0.11,0.27-0.13,0.42-0.03c0.03,0.05,0.07,0.1,0.11,0.15
			c0.09-0.03,0.18-0.07,0.26-0.11c-0.06-0.04-0.12-0.09-0.18-0.13C14.72,19.47,14.72,19.46,14.95,19.07z"/>
		<path fill="#ECB988" d="M12.43,18.02c-0.38-0.06-0.74-0.19-1.06-0.4c-0.06-0.04-0.12-0.02-0.16,0.03c0.12,0.17,0.35,0.16,0.48,0.3
			c0.07,0.07,0.17,0.12,0.09,0.22c-0.06,0.07-0.13,0.15-0.26,0.12c-0.36-0.09-0.36-0.08-0.37,0.28c0.22,0.19,0.45,0.08,0.65,0
			c0.19-0.07,0.34-0.07,0.45,0.1c0.02,0.04,0.03,0.07,0.03,0.1c0.1-0.18,0.24-0.35,0.44-0.49c0.04-0.03,0.09-0.03,0.14-0.04
			c-0.02-0.07-0.04-0.15-0.06-0.22c-0.04,0-0.08,0-0.12,0C12.59,18.19,12.51,18.19,12.43,18.02z"/>
		<path fill="#ECB988" d="M12.18,19c-0.03,0.03-0.06,0.05-0.09,0.08c-0.09,0.09-0.18,0.16-0.22,0.28c-0.08,0.19-0.24,0.28-0.44,0.25
			c-0.27-0.03-0.52,0.01-0.78,0.07c-0.14,0-0.29,0-0.43,0c-0.06-0.01-0.13,0-0.19,0.01c-0.13,0.02-0.26,0.06-0.38,0.02
			c-0.06-0.02-0.11-0.07-0.16-0.15c-0.02,0.02-0.04,0.04-0.06,0.06c0.04,0.17,0.35,0.27,0.15,0.52c-0.02,0.02,0.03,0.07,0.07,0.08
			c0.07,0.01,0.12-0.02,0.14-0.08c0.11-0.35,0.42-0.36,0.66-0.3c0.23,0.05,0.43,0.04,0.65,0c0.29-0.05,0.55,0.07,0.68,0.31
			c0.04,0.07,0.08,0.14,0.13,0.2c0.06,0.07,0.14,0.09,0.22,0.04c0.08-0.04,0.14-0.14,0.1-0.2c-0.07-0.12-0.05-0.23-0.03-0.34
			c-0.02-0.05-0.04-0.09-0.05-0.15C12.09,19.44,12.11,19.21,12.18,19z"/>
		<path fill="#E8B381" d="M14.87,19.98c0.01-0.06,0.02-0.12,0.01-0.18c-0.15-0.1-0.29-0.08-0.42,0.03c-0.08,0.06-0.15,0.1-0.25,0.07
			c-0.16-0.04-0.3,0-0.44,0.05C14.13,20.06,14.51,20.07,14.87,19.98z"/>
		<path fill="#ECB988" d="M11.2,20.03c-0.14-0.07-0.26,0.07-0.25,0.14c0.02,0.2,0.1,0.39,0.16,0.58c0,0.01,0.04,0,0.07,0.01
			c0.1-0.14,0.39-0.09,0.42-0.29C11.64,20.2,11.39,20.12,11.2,20.03z"/>
		<path fill="#ECB887" d="M14.38,20.73c0.06,0.09,0.16,0.16,0.26,0.23c0.25,0.06,0.39-0.12,0.55-0.25
			c-0.02-0.06-0.04-0.11-0.07-0.16C14.88,20.65,14.64,20.71,14.38,20.73z"/>
		<path fill="#EAB686" d="M13.84,21.55c0-0.01,0-0.02,0.01-0.03c-0.04-0.04-0.08-0.08-0.12-0.12c-0.15,0.03-0.24,0.11-0.24,0.27
			c0,0.02,0.01,0.03,0.02,0.04c0.08,0.01,0.17,0.01,0.25,0.01C13.78,21.67,13.81,21.61,13.84,21.55z"/>
		<path fill="#F5C496" d="M18.75,19.5c-0.25,0.03-0.42-0.2-0.65-0.22c-0.01,0-0.02-0.01-0.02-0.02c-0.11-0.67-0.45,0.12-0.63-0.1
			c-0.03,0.04-0.07,0.07-0.09,0.12c-0.07,0.23,0.12,0.69,0.34,0.8c0.23,0.12,0.2,0.2,0.01,0.34c-0.12,0.08-0.29,0.13-0.31,0.32
			c0.18,0.04,0.33-0.19,0.53-0.07c0.16-0.1,0.32-0.2,0.48-0.31c0.04-0.2,0.19-0.36,0.29-0.54C18.75,19.71,18.76,19.6,18.75,19.5z"/>
		<path fill="#EDBB8D" d="M17.4,20.72c-0.15,0-0.27-0.01-0.32-0.2c-0.04-0.18-0.15-0.3-0.37-0.24c-0.13,0.03-0.22-0.04-0.23-0.17
			c-0.01-0.12-0.06-0.19-0.19-0.18c0,0.04,0,0.08,0,0.12c0.08,0.12,0.12,0.24,0.13,0.37c0.01,0.13-0.01,0.26-0.03,0.39
			c-0.01,0.09-0.05,0.18,0.05,0.24c0.09,0.05,0.15-0.01,0.22-0.05c0.31-0.16,0.47-0.18,0.67-0.03c0.08-0.04,0.16-0.07,0.23-0.11
			c0.04-0.05,0.1-0.08,0.17-0.1c0.06-0.04,0.13-0.08,0.19-0.12C17.74,20.53,17.59,20.76,17.4,20.72z"/>
		<path fill="#EFBB8B" d="M15.44,19.68c-0.09-0.01-0.15-0.05-0.18-0.12c-0.18-0.05-0.38-0.08-0.21-0.35
			c0.05-0.08-0.02-0.13-0.1-0.14c-0.23,0.4-0.23,0.4,0.13,0.65c0.06,0.04,0.12,0.09,0.18,0.13c0.07-0.03,0.14-0.08,0.21-0.12
			C15.46,19.71,15.44,19.7,15.44,19.68z"/>
		<path fill="#E9B584" d="M15.13,20.56c0.02,0.05,0.04,0.11,0.07,0.16c0.1-0.01,0.22,0.02,0.25-0.12c-0.02-0.04-0.05-0.08-0.07-0.12
			C15.29,20.52,15.21,20.53,15.13,20.56z"/>
		<path fill="#E9B584" d="M14.87,19.98c0.04-0.01,0.08-0.02,0.13-0.03c-0.04-0.05-0.08-0.1-0.11-0.15
			C14.9,19.86,14.88,19.92,14.87,19.98z"/>
		<path fill="#F2C091" d="M16.26,19.92c-0.05,0.04-0.09,0.09-0.15,0.13c0.06,0,0.12,0,0.18,0c0-0.04,0-0.08,0-0.12l0,0
			C16.29,19.92,16.27,19.92,16.26,19.92z"/>
		<path fill="#FCCEA4" d="M15.75,7.53c0.08-0.12-0.15-0.19-0.17-0.32c0-0.02-0.01-0.04-0.01-0.06c-0.15,0-0.27,0.23-0.44,0.05
			c-0.14-0.15-0.21-0.07-0.24,0.08c-0.03,0.15-0.12,0.21-0.26,0.14c-0.27-0.13-0.29,0.03-0.29,0.23c0.33-0.1,0.67-0.15,1.02-0.13
			C15.48,7.53,15.66,7.67,15.75,7.53z"/>
		<path fill="#FCCEA4" d="M12.12,7.52c0.02,0.14,0.11,0.19,0.24,0.18c0.13-0.01,0.21-0.08,0.24-0.2c0.06-0.23,0.18-0.16,0.32-0.08
			c0.13,0.07,0.14,0.26,0.3,0.29c0-0.42-0.42-0.69-0.86-0.55C12.38,7.33,12.26,7.43,12.12,7.52z"/>
		<path fill="#FCCEA4" d="M16.03,7.55c0.18-0.03,0.23-0.18,0.31-0.28c0.04-0.05,0.07-0.09,0.1-0.12c-0.18-0.06-0.37-0.11-0.56-0.16
			C15.88,7,15.87,7.01,15.87,7.03C16.06,7.15,16.03,7.36,16.03,7.55z"/>
		<path fill="#FCCEA4" d="M12.24,7.03c0-0.02,0.01-0.03,0.01-0.05C12.21,6.99,12.17,7,12.13,7.01C12.17,7.02,12.21,7.03,12.24,7.03z
			"/>
		<path fill="#FCCEA4" d="M13.78,7.76c-0.12-0.05-0.27-0.27-0.31,0.06C13.57,7.78,13.71,7.97,13.78,7.76z"/>
		<path fill="#FCCEA4" d="M13.9,7.7c0.09,0,0.18,0.01,0.25-0.06C14.04,7.56,13.95,7.55,13.9,7.7z"/>
		<path fill="#FCCEA4" d="M13.47,7.83c-0.08,0-0.16,0-0.25,0C13.31,7.96,13.39,7.96,13.47,7.83z"/>
		<path fill="#F3C396" d="M19.3,15.17c0.11-0.01,0.18-0.09,0.18-0.21c0,0,0-0.01,0-0.01c-0.11,0.01-0.2,0.03-0.29,0.07
			C19.18,15.1,19.19,15.18,19.3,15.17z"/>
		<path fill="#F3C396" d="M20.33,14.21c0-0.19,0.21-0.23,0.39-0.24c0.1-0.01,0.21,0.01,0.24-0.12c-0.48-0.21-0.52-0.31-0.28-0.74
			c0.1-0.17,0.07-0.28-0.1-0.37c-0.16-0.09-0.32-0.14-0.5-0.12c-0.06,0.01-0.17,0.03-0.12,0.08c0.1,0.14-0.03,0.31,0.12,0.45
			c0.22,0.19,0.18,0.31-0.11,0.38c-0.21,0.05-0.22,0.14-0.06,0.25c0.12,0.08,0.16,0.21,0.21,0.34c0.02,0.01,0.05,0.01,0.07,0.02
			C20.25,14.15,20.29,14.18,20.33,14.21z"/>
		<path fill="#F3C396" d="M20.01,15c-0.09-0.03-0.17-0.04-0.25-0.05c0,0.03,0,0.07-0.03,0.11c-0.03,0.04-0.04,0.09-0.04,0.13
			s0.03,0.09,0.05,0.13c0.14,0,0.29,0,0.43,0c0.15-0.02,0.33,0.05,0.43-0.12c0.02-0.08,0.04-0.16,0.06-0.25
			c-0.02-0.04-0.04-0.08-0.06-0.12c-0.08-0.02-0.13-0.06-0.17-0.1C20.27,14.88,20.11,15.03,20.01,15z"/>
		<path fill="#F3C396" d="M19.68,13.86c-0.01-0.05,0.01-0.1,0.01-0.15c0.02-0.15-0.07-0.26-0.2-0.25c-0.13,0.01-0.24,0.11-0.21,0.28
			c0.01,0.06,0.02,0.11,0.04,0.17c0.11,0.03,0.23,0.06,0.34,0.09C19.67,13.94,19.69,13.9,19.68,13.86z"/>
		<path fill="#E9B584" d="M21.4,14.94c0.05-0.16,0.09-0.3-0.16-0.31c-0.05,0-0.11-0.05-0.16-0.08c-0.15-0.08-0.26-0.1-0.33-0.05
			c-0.08,0.05-0.12,0.15-0.14,0.33c0.02,0.04,0.04,0.08,0.06,0.12c0.21,0.08,0.01,0.16,0,0.25c0.02,0.14,0.12,0.29,0.01,0.43
			c-0.13,0.15-0.19,0.31-0.08,0.49c0.12,0.2,0.29,0.04,0.44,0.06c0.11,0.01,0.17,0.07,0.22,0.16c0.08-0.26,0.13-0.52,0.18-0.79
			C21.34,15.36,21.32,15.16,21.4,14.94z"/>
		<path fill="#ECB988" d="M8.26,14.66c-0.08-0.02-0.17-0.04-0.25-0.07c-0.11-0.03-0.18-0.21-0.26-0.34
			c-0.06,0.07-0.12,0.14-0.17,0.21c0.13,0.23,0.09,0.38-0.09,0.6c-0.16,0.2-0.43,0.33-0.47,0.63c0.29,0.07,0.35-0.16,0.45-0.34
			c0.16-0.29,0.43-0.3,0.6-0.03c0.04,0,0.08,0,0.12,0C8.21,15.1,8.25,14.88,8.26,14.66z"/>
		<path fill="#ECB988" d="M9.23,13.74c-0.19,0.03-0.38,0.06-0.57,0.11C8.89,13.87,9.07,13.83,9.23,13.74z"/>
		<path fill="#ECB988" d="M7.88,14.09c-0.01,0.01-0.02,0.02-0.02,0.03c0.01-0.01,0.03-0.02,0.04-0.03
			C7.9,14.09,7.89,14.09,7.88,14.09z"/>
		<path fill="#ECB988" d="M9.15,14.88c-0.04-0.01-0.09-0.02-0.14-0.03C9.05,14.88,9.1,14.88,9.15,14.88z"/>
		<path fill="#ECB988" d="M10.19,14.01c0.07-0.02,0.09-0.08,0.07-0.15c-0.01-0.04-0.04-0.06-0.07-0.06c-0.1,0.11-0.2,0.21-0.29,0.33
			c0.04,0.01,0.07,0.01,0.11,0.02C10.04,14.1,10.09,14.05,10.19,14.01z"/>
		<path fill="#F1C094" d="M6.78,13.29c0.02,0,0.04,0,0.06,0c0.09-0.09,0.2-0.05,0.31-0.06c0.15-0.03,0.26-0.16,0.43-0.12
			c0.21,0.05,0.41,0.12,0.61-0.02c0.08-0.05,0.16-0.03,0.22,0.03c0.1,0.09,0.21,0.16,0.33,0.08c0.13-0.09,0-0.22,0-0.34
			c-0.02-0.02-0.04-0.04-0.06-0.06c-0.3,0.04-0.51-0.01-0.36-0.47c-0.28,0.25-0.48,0.23-0.73,0.07c-0.19-0.12-0.53-0.06-0.8,0.06
			c-0.05,0.21-0.09,0.42-0.13,0.64c0.02,0.04,0.04,0.08,0.06,0.12C6.74,13.25,6.76,13.27,6.78,13.29z"/>
		<path fill="#F0BF90" d="M7.73,14.22c0.04-0.03,0.08-0.07,0.13-0.1c0.01-0.01,0.02-0.02,0.02-0.03c0.02-0.13,0.04-0.26,0.06-0.39
			c0.01-0.06,0.02-0.15,0.09-0.14c0.24,0.03,0.38-0.27,0.65-0.16c0.09,0.04,0.21-0.01,0.23-0.14c0.02-0.16,0.04-0.33-0.17-0.4
			c0,0.11,0.13,0.24,0,0.34c-0.12,0.08-0.23,0.01-0.33-0.08c-0.07-0.06-0.14-0.08-0.22-0.03c-0.2,0.14-0.41,0.07-0.61,0.02
			c0.1,0.21-0.03,0.37-0.18,0.46c-0.15,0.08-0.26,0.23-0.42,0.29c-0.06,0.02-0.11,0.05-0.1,0.13c0.05,0.32,0.38,0.54,0.7,0.48
			c0.06-0.07,0.12-0.14,0.17-0.21C7.74,14.24,7.74,14.23,7.73,14.22z"/>
		<path fill="#F0BF90" d="M7.15,13.23c-0.1,0.01-0.22-0.03-0.31,0.06C6.95,13.33,7.08,13.43,7.15,13.23z"/>
		<path fill="#F0BF90" d="M7.58,12.41c0.25,0.16,0.45,0.17,0.73-0.07c-0.14,0.46,0.07,0.51,0.36,0.47c-0.1-0.28,0.11-0.53,0.06-0.8
			c-0.12,0-0.25,0-0.37,0c-0.03,0.16-0.11,0.22-0.25,0.09c-0.06-0.06-0.09-0.14-0.18-0.15c-0.16,0.13-0.21-0.03-0.28-0.11
			c-0.06-0.07-0.14-0.1-0.22-0.04c-0.07,0.05-0.03,0.11,0.01,0.16c0.06,0.08,0.04,0.15-0.02,0.22c-0.07,0.08-0.16,0.1-0.25,0.04
			c-0.11-0.07-0.22-0.07-0.33-0.04c-0.03,0.1-0.05,0.2-0.08,0.31C7.05,12.34,7.39,12.29,7.58,12.41z"/>
		<path fill="#EDBB8D" d="M21.03,16.18c-0.29,0.37-0.86,0.37-1.08-0.02c-0.12-0.21,0.13-0.36,0.15-0.56
			c0.01-0.09,0.08-0.18,0.08-0.28c-0.14,0-0.29,0-0.43,0c0,0.06,0,0.12,0,0.18c0.03,0.35,0.08,0.7,0.01,1.05
			c-0.02,0.08-0.03,0.16-0.13,0.18c0.04,0.18-0.12,0.37,0,0.55c0.07-0.01,0.14-0.01,0.21-0.02c0.09-0.01,0.21-0.1,0.26,0.05
			c0.03,0.11-0.07,0.18-0.16,0.23c-0.15,0.09-0.32,0.12-0.49,0.11c-0.08,0.09-0.1,0.2-0.12,0.31c0.04,0,0.08,0,0.12,0
			c0.3-0.05,0.59-0.12,0.85-0.3c0.12-0.08,0.15-0.17,0.1-0.31c-0.14-0.37-0.09-0.44,0.32-0.56c0,0.04,0,0.08-0.01,0.12
			c-0.02,0.09-0.06,0.19,0.03,0.26c0.08,0.07,0.17,0.03,0.25-0.01c0.11-0.26,0.2-0.54,0.28-0.82C21.2,16.25,21.13,16.19,21.03,16.18
			z"/>
		<path fill="#EDBB8D" d="M19.65,18.55c0.04-0.09,0.12-0.1,0.2-0.04c0.07,0.06,0.15,0.08,0.21-0.01c0.05-0.06,0.05-0.13,0.03-0.2
			c-0.04-0.1-0.13-0.09-0.21-0.09c-0.16-0.01-0.33,0.03-0.45-0.12c-0.13,0.02-0.13,0.15-0.18,0.23c-0.02,0.03-0.04,0.06-0.07,0.07
			c0,0.06,0,0.12,0,0.18c0.07,0.07,0.06,0.16,0.06,0.25c0.23,0.25,0.29,0.41,0.23,0.59c0.11-0.12,0.22-0.23,0.32-0.36
			c-0.04-0.05-0.08-0.11-0.12-0.16C19.59,18.79,19.59,18.66,19.65,18.55z"/>
		<path fill="#F2C091" d="M19.18,18.39L19.18,18.39L19.18,18.39c0.03-0.02,0.05-0.04,0.07-0.07c0.05-0.09,0.05-0.21,0.18-0.23
			c0-0.04,0-0.08,0-0.12c-0.04,0-0.08,0-0.12,0C19.13,18.06,19.15,18.22,19.18,18.39z"/>
		<path fill="#F2C091" d="M19.18,18.39c0.03-0.02,0.05-0.04,0.07-0.07C19.23,18.35,19.21,18.37,19.18,18.39L19.18,18.39z"/>
		<path fill="#EAB686" d="M19.48,19.41c0.06-0.18,0-0.34-0.23-0.59c-0.24,0.07-0.24,0.32-0.37,0.47c-0.05,0.06-0.08,0.13-0.12,0.2
			c0.01,0.11-0.01,0.21-0.06,0.31c0.07,0.12,0.15,0.13,0.24,0.03c0.06-0.06,0.12-0.08,0.19-0.09
			C19.25,19.64,19.37,19.53,19.48,19.41z"/>
		<path fill="#EDBC8E" d="M12.88,14.24c0.45-0.12,0.78-0.4,0.99-0.76c-0.1-0.07-0.2-0.15-0.28-0.24c-0.03-0.04-0.09-0.06-0.1-0.11
			c-0.07-0.23-0.2-0.21-0.37-0.11c-0.18,0.11-0.52-0.01-0.6-0.19c-0.02-0.05-0.01-0.1,0.04-0.13c0.05-0.04,0.11-0.04,0.17-0.04
			c0.56,0.03,0.65-0.09,0.51-0.65c0-0.02-0.01-0.04-0.01-0.06c-0.07,0-0.14,0-0.18-0.06c-0.2,0.01-0.36-0.05-0.46-0.23
			c-0.05-0.09-0.16-0.18-0.25-0.1c-0.16,0.14-0.32,0.13-0.49,0.11c-0.4,0.23-0.68,0.6-0.91,1.06c0.03,0.01,0.07,0.02,0.1,0.05
			c0.09,0.09,0.03,0.19-0.02,0.28c-0.07,0.11-0.14,0.21-0.29,0.11c0,0-0.01,0-0.01,0c-0.13,0.23-0.32,0.44-0.52,0.65
			c0.03,0,0.06,0.02,0.07,0.06c0.02,0.07,0,0.12-0.07,0.15c-0.1,0.03-0.15,0.08-0.19,0.14C10.96,14.32,11.91,14.5,12.88,14.24z"/>
		<path fill="#EDBC8E" d="M14.48,16.44c0.09-0.22-0.06-0.3-0.23-0.38c-0.01,0.08-0.03,0.14-0.04,0.22c0,0.07-0.03,0.13-0.07,0.2
			c0.08,0.01,0.16,0.05,0.25,0.17c0.12,0.15,0.37-0.04,0.42-0.28C14.68,16.24,14.63,16.49,14.48,16.44z"/>
		<path fill="#EDBC8E" d="M12.57,15.06c0.09,0.04,0.18,0.08,0.26,0.12c0.24,0.14,0.29,0.37,0.14,0.6c-0.07,0.1-0.13,0.21-0.15,0.33
			c-0.06,0.28-0.11,0.57-0.52,0.39c-0.07-0.03-0.13,0.04-0.19,0.08c-0.07,0.06-0.14,0.1-0.22,0.04c-0.07-0.05-0.08-0.12-0.06-0.19
			c0.06-0.2-0.07-0.4,0.05-0.6c0.05-0.08,0.06-0.19,0.15-0.22c0.24-0.06,0.17-0.23,0.15-0.39c0-0.05-0.02-0.08-0.03-0.11
			c-0.05,0.01-0.1,0.02-0.16,0.02c-0.05,0-0.09,0-0.14,0c-0.04,0.29,0.02,0.6-0.22,0.84c-0.12,0.3-0.04,0.58,0.06,0.86
			c0.22,0.02,0.39,0.15,0.55,0.29c0.14,0.13,0.27,0.15,0.43,0.05c0.17-0.1,0.39-0.08,0.55-0.22c0.06-0.25,0.23-0.34,0.48-0.39
			c0.05-0.01,0.11-0.03,0.16-0.05c-0.03-0.04-0.05-0.08-0.07-0.12c-0.01,0.01-0.02,0.02-0.04,0.03c-0.09,0.05-0.17,0.05-0.25-0.03
			c-0.09-0.08-0.07-0.16-0.01-0.25c0.07-0.12,0.14-0.25,0.22-0.37c0.07-0.1,0.07-0.17-0.02-0.26c-0.16-0.16-0.1-0.41,0.12-0.5
			c0.08-0.03,0.17-0.05,0.25-0.06c0.21-0.37,0.5-0.68,0.87-0.91c-0.04-0.01-0.08-0.02-0.13-0.02c-0.2-0.01-0.36-0.09-0.48-0.22
			c-0.01-0.01-0.01-0.01-0.02-0.01C13.95,14.42,13.35,14.87,12.57,15.06z"/>
		<path fill="#EDBC8E" d="M15.59,14.97c0.12-0.15,0.23-0.3,0.26-0.47c-0.06,0.01-0.11,0-0.17,0.01c-0.5,0.06-0.86,0.27-1.1,0.6
			c0.01,0.01,0.02,0.01,0.03,0.02C15.11,15.5,15.19,15.47,15.59,14.97z"/>
		<path fill="#F9C99D" d="M16.33,10.22c-0.16,0.16-0.44,0.16-0.5,0.48c-0.08,0.35-0.23,0.39-0.56,0.25
			c-0.17-0.07-0.29,0.12-0.46,0.06c-0.23-0.08-0.28,0.06-0.26,0.27c0.01,0.12-0.08,0.09-0.15,0.08c-0.25-0.06-0.48-0.04-0.72,0.05
			c-0.21,0.08-0.42-0.07-0.63-0.02c0,0.2,0.1,0.32,0.3,0.3c0.41-0.03,0.68,0.09,0.7,0.56c0,0.07,0.06,0.14,0.13,0.19
			c0.03-0.14,0.11-0.27,0.17-0.41c0.06,0.1,0.14,0.19,0.2,0.29c0.03-0.36,0.46-0.57,0.36-0.97c-0.01-0.03,0.03-0.07,0.06-0.1
			c0.23-0.18,0.86,0.01,0.96,0.29c0.05,0.13,0.09,0.27,0.14,0.4c0.04,0.1,0.12,0.13,0.22,0.12c0.07-0.01,0.14-0.06,0.11-0.11
			c-0.19-0.29,0.08-0.32,0.22-0.4c0.24-0.13,0.13-0.3,0.04-0.44c-0.11-0.16-0.23-0.07-0.31,0.05c-0.05,0.07-0.12,0.12-0.21,0.08
			c-0.06-0.02-0.13-0.05-0.12-0.12c0.04-0.23,0.01-0.51,0.33-0.59c0.29-0.29,0.29-0.29,0.8,0.12c0.14,0.04,0.26,0.09,0.31,0.25
			c0.04,0.02,0.08,0.04,0.12,0.06c0.06-0.07,0.15-0.08,0.23-0.05c0.19,0.07,0.31,0.22,0.35,0.42c0.03,0.12-0.05,0.16-0.15,0.17
			c-0.08,0.01-0.19,0.02-0.15,0.13c0.06,0.17,0.21,0.25,0.37,0.28c0.1,0.02,0.14-0.1,0.14-0.2c0.02-0.38,0.17-0.51,0.57-0.45
			c-0.02-0.1-0.05-0.26-0.13-0.26c-0.28,0-0.4-0.3-0.66-0.3c-0.34,0.05-0.61-0.29-0.55-0.68c-0.08,0.04-0.14,0.11-0.19,0.2
			c-0.18,0.31-0.24,0.31-0.43-0.01C16.76,10.09,16.54,10,16.33,10.22z"/>
		<path fill="#FCCCA0" d="M16.17,9.8c-0.04,0.12-0.1,0.22-0.17,0.32c-0.01,0.01-0.01,0.02-0.02,0.03c-0.11,0.14-0.24,0.27-0.41,0.37
			c-0.12,0.07-0.29,0.04-0.44,0.06c0.01-0.08,0-0.16,0.01-0.24c-0.08,0.06-0.16,0.11-0.25,0.14c-0.17,0.06-0.27,0.15-0.35,0.3
			c-0.17,0.31-0.61,0.49-0.95,0.41c-0.06-0.02-0.13-0.03-0.13-0.11c0-0.08,0.07-0.09,0.12-0.11c0.01,0,0.02-0.01,0.03-0.01
			c0.2-0.01,0.44,0.01,0.56-0.18c0.13-0.2-0.04-0.39-0.11-0.57c-0.03-0.07,0.01-0.14,0.03-0.21c0.02-0.07,0.06-0.14,0.15-0.11
			c0.07,0.02,0.08,0.09,0.06,0.15c-0.04,0.14,0.01,0.23,0.16,0.23c0.15,0,0.18-0.11,0.18-0.23c0-0.09-0.01-0.19,0.01-0.28
			c0.04-0.16-0.01-0.23-0.18-0.22c-0.07,0-0.15-0.01-0.2-0.05c-0.16-0.13-0.31-0.31-0.42,0.04c-0.03,0.09-0.16,0.06-0.25,0.07
			c0.19,0.24,0.28,0.53,0.36,0.81c0.03,0.09,0.09,0.17,0,0.24c-0.11,0.08-0.15-0.02-0.2-0.1c-0.02-0.03-0.08-0.08-0.09-0.07
			c-0.28,0.18-0.41-0.12-0.62-0.18c-0.18-0.06-0.38-0.07-0.54,0.1c-0.05,0.06-0.12,0.11-0.21,0.12c-0.02,0.04-0.04,0.08-0.06,0.12
			c0.06,0.05,0.06,0.12,0.06,0.18c0.13-0.09,0.27-0.17,0.4-0.26c0.09-0.06,0.15-0.23,0.3-0.1c0.1,0.08,0.23,0.16,0.2,0.32
			c-0.03,0.19-0.2,0.18-0.33,0.22c-0.04,0.01-0.09,0.01-0.14,0.01c0.06,0.05,0.13,0.12,0.19,0.18c-0.03,0.03-0.06,0.08-0.09,0.12
			c0,0.01,0.01,0.01,0.01,0.01c0.05,0.06,0.12,0.06,0.18,0.06c0.21-0.05,0.42,0.1,0.63,0.02c0.24-0.09,0.47-0.12,0.72-0.05
			c0.07,0.02,0.16,0.04,0.15-0.08c-0.02-0.21,0.04-0.35,0.26-0.27c0.18,0.06,0.3-0.13,0.46-0.06c0.33,0.14,0.48,0.11,0.56-0.25
			c0.07-0.31,0.34-0.31,0.5-0.48c0.22-0.22,0.43-0.14,0.65,0l0,0c0-0.15-0.18-0.22-0.18-0.37C16.58,9.8,16.35,9.97,16.17,9.8z"/>
		<path fill="#F1C195" d="M14.06,14.98c-0.08,0.01-0.17,0.03-0.25,0.06c-0.22,0.08-0.28,0.34-0.12,0.5c0.1,0.09,0.09,0.16,0.02,0.26
			c-0.08,0.12-0.15,0.24-0.22,0.37c-0.05,0.09-0.07,0.17,0.01,0.25c0.08,0.07,0.16,0.07,0.25,0.03c0.02-0.01,0.02-0.02,0.04-0.03
			c-0.03-0.05-0.04-0.1-0.05-0.15C13.72,15.79,13.84,15.36,14.06,14.98z"/>
		<path fill="#F1C195" d="M16.47,14.64c0.04,0.04,0.06,0.11,0.07,0.17c0.02,0.1,0.06,0.24,0.17,0.22c0.14-0.03,0.08-0.19,0.07-0.29
			c-0.01-0.09-0.03-0.18-0.02-0.26c-0.3,0-0.6,0-0.9,0.03c-0.03,0.17-0.14,0.32-0.26,0.47c-0.41,0.5-0.49,0.53-0.98,0.16
			c-0.01-0.01-0.02-0.01-0.03-0.02c-0.19,0.25-0.29,0.58-0.33,0.94c0.17,0.08,0.32,0.16,0.23,0.38c0.15,0.06,0.19-0.2,0.34-0.07
			c0.04,0.02,0.08,0.04,0.12,0.06c0.04,0,0.08,0,0.12,0c0.05-0.14,0.24-0.24,0.12-0.43c-0.02-0.04-0.04-0.08-0.06-0.12
			c-0.05-0.25,0.14-0.3,0.31-0.37c0.19-0.27,0.5-0.44,0.67-0.73c0.04-0.07,0.12-0.06,0.19-0.06C16.33,14.6,16.38,14.56,16.47,14.64z
			"/>
		<path fill="#F3C396" d="M19.52,15.99c0.06,0.09,0.15,0.19,0.03,0.26c-0.16,0.1-0.16-0.08-0.21-0.17
			c-0.17-0.35-0.25-0.38-0.62-0.25c-0.09,0.03-0.18,0.05-0.25,0.01c-0.03,0.07-0.07,0.13-0.1,0.2c-0.03,0.06-0.05,0.14-0.08,0.2
			c0.03,0.06,0.07,0.12,0.14,0.16c0.13,0.09,0.21,0.23,0.19,0.4c-0.02,0.14-0.13,0.3-0.26,0.2c-0.1-0.07-0.2-0.12-0.31-0.17
			c-0.04,0.13-0.09,0.25-0.13,0.38c0.11,0.18,0.18,0.39,0.15,0.63c0.08-0.01,0.13-0.04,0.17-0.11c0.14-0.21,0.26-0.36,0.51-0.09
			c0.12,0.13,0.31,0.13,0.36-0.12c0.02-0.08,0.04-0.16,0.06-0.23c0.04-0.1,0.06-0.19-0.1-0.16c-0.11,0.02-0.18-0.01-0.2-0.12
			c-0.02-0.1,0-0.19,0.1-0.23c0.2-0.07,0.4-0.3,0.63-0.04c0.1-0.02,0.11-0.1,0.13-0.18c0.08-0.35,0.03-0.7-0.01-1.05
			C19.37,15.59,19.32,15.7,19.52,15.99z"/>
		<path fill="#EFBF92" d="M13.87,13.48c0.09-0.15,0.16-0.3,0.2-0.48c-0.11,0.18-0.27,0.26-0.48,0.23l0,0
			C13.67,13.33,13.77,13.4,13.87,13.48z"/>
		<path fill="#EFBF92" d="M14.68,13.57c-0.12,0.03-0.28,0.07-0.17-0.16c0-0.04,0-0.08,0-0.13c-0.05,0.19-0.12,0.36-0.22,0.53
			c0.01,0,0.01,0.01,0.02,0.01c0.13,0.13,0.28,0.21,0.48,0.22c0.05,0,0.09,0.01,0.13,0.02c0.19-0.12,0.41-0.22,0.63-0.29
			c0-0.04,0-0.08,0-0.12C15.28,13.52,14.99,13.5,14.68,13.57z"/>
		<path fill="#F1C094" d="M12.24,10.9c0,0.01,0,0.03,0,0.04c0.05,0,0.1,0,0.16,0.01c-0.03-0.02-0.06-0.03-0.09-0.05
			C12.29,10.9,12.26,10.9,12.24,10.9z"/>
		<path fill="#F1C094" d="M11.67,10.94c0.02,0,0.04,0,0.07,0c-0.02-0.03-0.02-0.06-0.03-0.1C11.69,10.88,11.68,10.91,11.67,10.94z"
			/>
		<path fill="#F1C094" d="M12.33,11.55c0.09-0.09,0.2,0.01,0.25,0.1c0.11,0.18,0.27,0.24,0.46,0.23c0-0.21-0.15-0.34-0.26-0.49
			c-0.03,0.02-0.05,0.04-0.08,0.04c-0.35,0.01-0.63,0.09-0.87,0.22C12.01,11.68,12.17,11.69,12.33,11.55z"/>
		<path fill="#F1C195" d="M14.76,13.22c0.04,0.04,0.06,0.09,0.03,0.13c-0.07,0.1-0.18,0.05-0.27,0.06
			c-0.11,0.23,0.05,0.18,0.17,0.16c0.3-0.07,0.6-0.05,0.88,0.09c0.07-0.02,0.12-0.05,0.08-0.13c-0.04-0.09-0.1-0.1-0.2-0.1
			c-0.32,0.02-0.43-0.11-0.37-0.42c0.02-0.13,0.1-0.22,0.17-0.32c0.07-0.1,0.29-0.12,0.19-0.29c-0.08-0.14-0.26-0.06-0.39-0.08
			c-0.07-0.01-0.14,0.03-0.21,0.05c-0.18,0.06-0.29,0.14-0.11,0.32c0.14,0.15,0.02,0.22-0.1,0.27c-0.01,0.01-0.03,0-0.04,0.01
			c-0.01,0.09-0.04,0.17-0.06,0.25C14.61,13.19,14.69,13.15,14.76,13.22z"/>
		<path fill="#F1C094" d="M17.16,10.65c-0.51-0.42-0.51-0.42-0.8-0.12c0.19,0.44,0.72,0.54,0.95,0.95c0.01,0.01,0.06,0,0.08,0
			c0.29-0.09,0.35-0.25,0.19-0.51c-0.04-0.02-0.08-0.04-0.12-0.06C17.32,10.86,17.18,10.83,17.16,10.65z"/>
		<path fill="#EFBF92" d="M12.73,12.65c-0.06,0-0.12,0-0.17,0.04c-0.05,0.03-0.06,0.08-0.04,0.13c0.08,0.18,0.42,0.3,0.6,0.19
			c0.17-0.1,0.3-0.11,0.37,0.11c0.01,0.04,0.07,0.07,0.1,0.11l0,0c0.04-0.4-0.12-0.77-0.12-1.17c-0.08-0.04-0.14-0.12-0.25-0.12
			c0,0.02,0.01,0.04,0.01,0.06C13.38,12.56,13.29,12.68,12.73,12.65z"/>
		<path fill="#EFBF92" d="M17.01,12.46c-0.16-0.1-0.37-0.1-0.54-0.19c-0.07-0.03-0.15,0-0.16,0.09c-0.01,0.09,0.04,0.13,0.13,0.12
			c0.08-0.01,0.17-0.01,0.15,0.08c-0.03,0.23,0.16,0.33,0.32,0.48c-0.15,0.07-0.36-0.09-0.37,0.16c-0.01,0.12,0,0.24,0.15,0.26
			c0.21,0.02,0.24-0.15,0.28-0.3c0.02-0.1,0.06-0.2,0.13-0.27C17.32,12.7,17.16,12.54,17.01,12.46z"/>
		<path fill="#F2C091" d="M16.78,14.74c0.01,0.1,0.08,0.26-0.07,0.29c-0.11,0.02-0.15-0.11-0.17-0.22
			c-0.01-0.06-0.03-0.12-0.07-0.17c-0.09-0.09-0.14-0.04-0.17,0.06c0.12,0.15,0.22,0.3,0.25,0.49c0.14,0.03,0.35-0.09,0.37,0.18
			c0.08-0.06,0.16-0.12,0.25-0.18c-0.08-0.17-0.03-0.35,0.01-0.51c0.02-0.09,0.02-0.15,0-0.21c-0.14-0.01-0.28-0.01-0.41-0.01
			C16.75,14.56,16.77,14.65,16.78,14.74z"/>
		<path fill="#F1C195" d="M14.05,12.63c0.04-0.09-0.01-0.18-0.1-0.19c-0.24-0.03-0.35-0.21-0.48-0.37c0,0.39,0.16,0.77,0.12,1.17
			c0.21,0.03,0.37-0.05,0.48-0.23c0-0.01,0-0.03,0.01-0.04C14.06,12.85,14,12.74,14.05,12.63z"/>
		<path fill="#EDBC8E" d="M18.6,12.37c-0.09,0.2,0.18,0.24,0.31,0.34c0.02,0.01,0.03,0.02,0.05,0.03c0.08,0.05,0.17,0.1,0.24,0.01
			c0.06-0.09-0.03-0.14-0.09-0.19c-0.16-0.12-0.16-0.24,0-0.37c0-0.08,0-0.16,0-0.24C18.81,11.91,18.69,12.17,18.6,12.37z"/>
		<path fill="#F0BF90" d="M17.16,16.52c0.07-0.16,0.13-0.32,0.21-0.47c0-0.01-0.01-0.02-0.01-0.03c0.01-0.04,0.04-0.06,0.07-0.07
			c0.01-0.01,0.02-0.03,0.03-0.04c0-0.01,0-0.02,0-0.03c0-0.1-0.08-0.16-0.12-0.25c-0.1,0-0.16,0.08-0.25,0.12
			C17.17,16,17.23,16.25,17.16,16.52z"/>
		<path fill="#F9C99D" d="M19.12,11.94c0,0.08,0,0.16,0,0.24c0.27,0.13,0.3-0.08,0.37-0.25c-0.16-0.03-0.2-0.11-0.15-0.26
			c0.06-0.19-0.02-0.29-0.22-0.29C19.26,11.57,19.16,11.76,19.12,11.94z"/>
		<path fill="#F1C195" d="M17.1,15.75c0.08-0.04,0.14-0.12,0.25-0.12c-0.06-0.14-0.12-0.29-0.18-0.43
			c-0.08,0.06-0.16,0.12-0.25,0.18c0,0.08,0,0.16,0,0.25C16.97,15.67,17.01,15.75,17.1,15.75z"/>
		<path fill="#F3C396" d="M17.46,15.9c0.01-0.01,0.01-0.02,0.02-0.03c-0.01,0-0.01,0-0.02,0C17.46,15.88,17.46,15.89,17.46,15.9z"/>
		<path fill="#F9C99D" d="M12.86,11.33c0-0.01-0.01-0.01-0.01-0.01c0,0-0.01,0.01-0.01,0.01C12.84,11.33,12.85,11.33,12.86,11.33z"
			/>
		<path fill="#F6C69A" d="M18.14,10.71c0-0.06,0-0.12,0-0.18c-0.15-0.03-0.25-0.13-0.3-0.26c-0.05-0.12-0.12-0.21-0.25-0.23
			C17.53,10.42,17.8,10.76,18.14,10.71z"/>
		<path fill="#FCCEA4" d="M12.8,9.24c0.06,0.06,0.12,0.12,0.18,0.18c0.15,0.01,0.31-0.01,0.37,0.18c0.08,0,0.16,0,0.24,0
			c0.09,0,0.22,0.02,0.25-0.07c0.12-0.36,0.26-0.18,0.42-0.04c0.05,0.04,0.13,0.05,0.2,0.05c0.17-0.01,0.22,0.06,0.18,0.22
			c-0.02,0.09-0.01,0.18-0.01,0.28c0,0.12-0.03,0.23-0.18,0.23c-0.15,0-0.19-0.09-0.16-0.23c0.02-0.07,0.01-0.13-0.06-0.15
			c-0.09-0.03-0.13,0.04-0.15,0.11c-0.02,0.07-0.06,0.13-0.03,0.21c0.07,0.19,0.24,0.37,0.11,0.57c-0.12,0.19-0.36,0.17-0.56,0.18
			c-0.01,0-0.02,0-0.03,0.01c-0.05,0.02-0.13,0.04-0.12,0.11c0,0.08,0.07,0.09,0.13,0.11c0.34,0.08,0.78-0.09,0.95-0.41
			c0.08-0.15,0.18-0.24,0.35-0.3c0.09-0.03,0.17-0.09,0.25-0.14c0-0.07,0.01-0.13,0.04-0.19c0.34-0.66,0.08-1.2-0.65-1.35
			c-0.12-0.02-0.23-0.04-0.35-0.05c-0.15,0.06-0.3,0.12-0.42,0.24c-0.15,0.14-0.3,0.13-0.48,0.04c-0.07-0.04-0.14-0.08-0.21-0.11
			c-0.09,0.05-0.18,0.1-0.27,0.16C12.8,9.13,12.8,9.18,12.8,9.24z"/>
		<path fill="#F9C99D" d="M16.25,9.28c0.01,0.19-0.02,0.37-0.08,0.53c0.19,0.16,0.41,0,0.62,0.05c0-0.08,0-0.16,0-0.25
			c-0.11-0.09-0.1-0.24-0.19-0.34c-0.14-0.15-0.16-0.32-0.06-0.48c0.12-0.21,0.24,0.02,0.36,0.03c0.08,0.01,0.16,0.06,0.22-0.03
			c0.04-0.06,0.03-0.12-0.01-0.17c-0.22-0.24-0.43-0.49-0.66-0.72c-0.08-0.08-0.18-0.1-0.28-0.04c-0.09,0.05-0.11,0.14-0.08,0.24
			c0.03,0.11-0.02,0.17-0.1,0.23c-0.06,0.04-0.09,0.09-0.11,0.15C16.09,8.67,16.23,8.93,16.25,9.28z"/>
		<path fill="#F9C99D" d="M16,10.13c-0.01,0.01-0.01,0.02-0.02,0.03C15.98,10.15,15.99,10.14,16,10.13z"/>
		<path fill="#F5C496" d="M12.32,10.06c0.14-0.24,0.29-0.3,0.54-0.17c0.28,0.15,0.45,0.04,0.49-0.29c-0.06-0.19-0.22-0.18-0.37-0.18
			c0,0.02,0,0.04,0,0.06c-0.08,0.21-0.16,0.11-0.25,0c0-0.02,0-0.04,0-0.06c-0.09-0.02-0.17-0.03-0.26-0.05
			c-0.15,0.17-0.28,0.37-0.4,0.6c-0.12,0.25-0.23,0.52-0.34,0.8c0.03,0,0.05,0,0.08,0c0.01-0.08,0.04-0.16,0.13-0.17
			c0.11-0.01,0.13,0.1,0.17,0.17c0.02,0,0.04,0,0.06,0c0.02-0.04,0.04-0.08,0.06-0.12c0.02-0.04,0.04-0.08,0.06-0.12
			C12.26,10.37,12.23,10.22,12.32,10.06z"/>
		<path fill="#FCCEA4" d="M16.97,10.22c0.14,0.01,0.25-0.03,0.35-0.13c0.1-0.1,0.17-0.21,0.12-0.35C17.38,9.53,17.17,9.48,17,9.4
			c-0.15-0.06-0.13,0.15-0.21,0.21c0,0.08,0,0.16,0,0.25C16.79,10.01,16.97,10.07,16.97,10.22z"/>
		<path fill="#F9C99D" d="M12.8,9.24c0-0.06,0-0.11,0-0.17c-0.11,0.08-0.22,0.18-0.32,0.3c0.09,0.02,0.17,0.03,0.26,0.05
			C12.74,9.35,12.74,9.29,12.8,9.24z"/>
		<path fill="#EBB888" d="M9.75,18.62c0.22-0.05,0.36,0.02,0.46,0.2c0.08,0,0.16,0,0.25,0c0.01-0.09,0.02-0.18,0.04-0.27
			c0.03-0.15-0.04-0.26-0.16-0.34c-0.13-0.09-0.2-0.02-0.28,0.08c-0.06,0.07-0.15,0.11-0.25,0.09c-0.07-0.01-0.15-0.03-0.17-0.1
			c-0.02-0.07,0.04-0.11,0.08-0.15c0.12-0.13,0.36-0.22,0.15-0.46c-0.01-0.01,0-0.06,0.02-0.08c0.03-0.03,0.07-0.01,0.11,0.01
			c0.07,0.05,0.15,0.11,0.22,0.16c0.2,0.16,0.3,0,0.33-0.14c0.03-0.18-0.07-0.35-0.17-0.5c-0.08-0.12-0.2-0.06-0.3-0.01
			c-0.12,0.06-0.23,0.03-0.31-0.06c-0.08-0.09,0.04-0.16,0.08-0.23c0.03-0.04,0.05-0.09,0.07-0.14c0.1-0.21,0.22-0.24,0.35-0.03
			c0.12,0.2,0.27,0.29,0.5,0.26c-0.01-0.22-0.21-0.38-0.18-0.61c-0.37,0.18-0.4,0.15-0.37-0.31c-0.05-0.06-0.12-0.06-0.18-0.06
			c-0.02,0.06-0.04,0.13-0.07,0.19c-0.04,0.07-0.08,0.16-0.17,0.13c-0.1-0.03-0.05-0.13-0.07-0.2c-0.32-0.02-0.53-0.22-0.74-0.43
			c-0.01,0.18-0.01,0.36-0.02,0.55c0,0.04-0.01,0.08-0.05,0.1c-0.06,0.03-0.09-0.02-0.13-0.06c-0.18-0.21-0.37-0.41-0.42-0.69
			c-0.02-0.11-0.07-0.19-0.19-0.2c-0.04,0-0.08,0-0.12,0c-0.11,0.21-0.31,0.37-0.37,0.61c0.07,0,0.15,0,0.2-0.06
			c0.18-0.18,0.31-0.16,0.41,0.08c0.07,0.16,0.2,0.27,0.35,0.38c0.3,0.21,0.39,0.52,0.28,0.8c-0.04,0.1-0.08,0.17-0.2,0.12
			c-0.08-0.04-0.18-0.07-0.16-0.19C8.6,17,8.64,16.95,8.65,16.89c0.01-0.11-0.06-0.19-0.15-0.19c-0.15-0.01-0.08,0.1-0.07,0.17
			c0.02,0.21,0.12,0.42-0.02,0.62c-0.04,0.05-0.02,0.12,0.03,0.17c0.06,0.06,0.12,0.05,0.2,0.01c0.14-0.07,0.27-0.15,0.42-0.18
			c0.18-0.04,0.32,0.07,0.2,0.23c-0.15,0.22-0.06,0.4-0.01,0.6c0.04,0.1,0.08,0.2,0.12,0.31C9.49,18.63,9.63,18.65,9.75,18.62z"/>
		<path fill="#EFBF92" d="M9.6,19.13c-0.17,0.01-0.22-0.1-0.25-0.25c-0.08-0.08-0.08-0.16,0-0.25c-0.04-0.1-0.08-0.2-0.12-0.31
			c-0.19-0.04-0.29,0.12-0.44,0.18c-0.2,0.09-0.36,0.23-0.27,0.43c0.09,0.2,0.3,0.38,0.54,0.3c0.29-0.1,0.35,0.07,0.41,0.26
			c0.06-0.1,0.05-0.25,0.18-0.31C9.64,19.17,9.62,19.15,9.6,19.13z"/>
		<path fill="#F5C496" d="M10.03,19.69c0.06-0.01,0.13-0.02,0.19-0.01c0.02-0.08,0.04-0.16,0.06-0.24c0.04-0.15,0.06-0.27-0.16-0.19
			c-0.16,0.06-0.32,0.08-0.45-0.06c-0.13,0.06-0.12,0.21-0.18,0.31c0,0.02,0,0.04,0,0.06c0.05,0.08,0.11,0.13,0.16,0.15
			C9.76,19.75,9.9,19.71,10.03,19.69z"/>
		<path fill="#F0BF90" d="M11.01,13.05c0.05-0.09,0.11-0.19,0.02-0.28c-0.03-0.03-0.06-0.04-0.1-0.05
			c-0.05,0.09-0.09,0.19-0.14,0.29c-0.02,0.05-0.06,0.1-0.08,0.15c0,0,0.01,0,0.01,0C10.87,13.26,10.94,13.16,11.01,13.05z"/>
		<path fill="#F0BF90" d="M8.8,11.57c0.02,0.1,0.04,0.2,0.06,0.31c0.13,0,0.23,0.04,0.32,0.14c0.1,0.11,0.16,0.1,0.2,0.02
			c0.01-0.03,0.02-0.06,0.03-0.1c-0.03-0.01-0.06-0.02-0.09-0.03c-0.08-0.04-0.12-0.1-0.05-0.2c0.08-0.12,0.24-0.15,0.35-0.1
			c0.18,0.07,0,0.17-0.03,0.26c0.25-0.03,0.35,0.06,0.39,0.33c0.02,0.14,0.02,0.27,0.03,0.41c0.12-0.28,0.24-0.57,0.35-0.87
			c-0.03,0.03-0.07,0.05-0.09,0.1c-0.01,0.03-0.06,0.06-0.09,0.06c-0.06,0-0.07-0.06-0.08-0.11c-0.02-0.13,0.04-0.24,0.06-0.36
			c-0.04-0.04-0.08-0.08-0.12-0.12c-0.1,0-0.2,0-0.31,0C9.47,11.59,9.13,11.58,8.8,11.57z"/>
		<path fill="#F0BF90" d="M9.06,10.09c-0.21,0.26-0.52,0.29-0.81,0.38c0.02,0.07,0.01,0.17,0.05,0.2c0.26,0.16,0.12,0.32,0.01,0.48
			c0.13-0.02,0.21-0.09,0.29-0.2c0.23-0.36,0.36-0.36,0.66-0.06c0.07,0.07,0.1,0.18,0.22,0.19c-0.03-0.21-0.13-0.38-0.26-0.54
			c-0.06-0.08-0.15-0.15-0.04-0.26c0-0.06,0-0.12,0-0.18C9.13,10.09,9.07,10.07,9.06,10.09z"/>
		<path fill="#F1C094" d="M9.22,10.54c0.13,0.16,0.23,0.33,0.26,0.54c0.07,0.1,0.23,0.1,0.25,0.25c0.1,0,0.2,0,0.31,0
			c-0.16-0.45-0.51-0.75-0.86-1.04C9.07,10.39,9.15,10.46,9.22,10.54z"/>
		<path fill="#F1C094" d="M10.18,11.91c0.03,0,0.08-0.03,0.09-0.06c0.02-0.05,0.06-0.07,0.09-0.1c0.04-0.11,0.08-0.21,0.11-0.32
			c-0.1,0.03-0.2,0.04-0.32,0.01c-0.02,0.12-0.08,0.23-0.06,0.36C10.11,11.86,10.12,11.91,10.18,11.91z"/>
		<path fill="#EDBC8E" d="M9.06,10.09c0.01-0.02,0.08,0.01,0.11,0.01c0.02-0.04,0.04-0.08,0.06-0.12c-0.12,0.01-0.25-0.03-0.34,0.07
			c-0.16,0.18-0.34,0.26-0.58,0.24c-0.12-0.01-0.18,0.06-0.18,0.18c0.04,0,0.08,0,0.12,0C8.54,10.38,8.85,10.35,9.06,10.09z"/>
		<path fill="#F1C094" d="M10.07,10.85c-0.01,0.06,0.03,0.09,0.09,0.09c0.06,0,0.09-0.03,0.1-0.06c0.01-0.03,0.02-0.08,0.02-0.12
			c0-0.03,0-0.07-0.01-0.09c-0.01-0.03-0.03-0.05-0.07-0.04C10.08,10.65,10.09,10.77,10.07,10.85z"/>
		<path fill="#F1C094" d="M10.26,10.88c0.01-0.03,0.02-0.08,0.02-0.12c0-0.03,0-0.07-0.01-0.09c0.01,0.03,0.01,0.06,0.01,0.09
			C10.28,10.81,10.27,10.85,10.26,10.88z"/>
		<path fill="#FCC492" d="M9.42,9.61C9.23,9.67,9.3,9.85,9.23,9.98C9.41,9.91,9.4,9.75,9.42,9.61z"/>
		<path fill="#F1C094" d="M8.31,11.14c0.11-0.16,0.25-0.32-0.01-0.48c-0.04-0.03-0.03-0.13-0.05-0.2c-0.04,0-0.08,0-0.12,0
			c-0.06-0.04-0.12-0.08-0.18-0.12c-0.1,0.01-0.15,0.08-0.2,0.16c-0.16,0.26-0.32,0.52-0.49,0.8c0.3,0.03,0.59,0.17,0.88,0.02
			C8.14,11.21,8.2,11.15,8.31,11.14z"/>
		<path fill="#EDBC8E" d="M8.56,11.57c0.08,0,0.16,0,0.25,0c0.33,0,0.66,0.01,0.92-0.25c-0.02-0.15-0.18-0.15-0.25-0.25
			c-0.12-0.01-0.16-0.12-0.22-0.19c-0.29-0.31-0.42-0.3-0.66,0.06c-0.07,0.11-0.16,0.18-0.29,0.2c-0.11,0.01-0.17,0.07-0.18,0.18
			c0.02,0.08,0.04,0.16,0.06,0.25C8.31,11.52,8.44,11.33,8.56,11.57z"/>
		<path fill="#F0BF90" d="M8.56,11.57c-0.12-0.25-0.25-0.06-0.37,0c-0.08,0.06-0.11,0.15-0.12,0.25c0.1,0.05,0.2,0.07,0.31,0.06
			C8.38,11.75,8.4,11.61,8.56,11.57z"/>
		<path fill="#EDBC8E" d="M8.07,11.82c-0.07,0.01-0.11,0.05-0.12,0.12c0.09,0.01,0.13,0.09,0.18,0.15c0.14,0.13,0.21,0.08,0.25-0.09
			c0-0.04,0-0.08,0-0.12C8.27,11.88,8.16,11.87,8.07,11.82z"/>
		<path fill="#EDBC8E" d="M15.44,17.84c0.2-0.04,0.4-0.09,0.6-0.12c0.09-0.02,0.14-0.05,0.19-0.13c0.22-0.34,0.39-0.45,0.68-0.43
			c0.07-0.2,0.15-0.4,0.23-0.59c-0.21,0.17-0.4,0.39-0.72,0.21c-0.12-0.06-0.15,0.05-0.2,0.13c-0.04,0.07-0.04,0.23-0.17,0.15
			c-0.11-0.07,0-0.17,0.04-0.26c0.14-0.36,0.27-0.72,0.46-1.05c0.09-0.18,0.16-0.37,0-0.55c-0.02-0.19-0.13-0.35-0.25-0.49
			c-0.07,0-0.16,0-0.19,0.06c-0.17,0.29-0.47,0.47-0.67,0.73c0.08,0.35,0.07,0.36-0.31,0.37c0.02,0.04,0.04,0.08,0.06,0.12
			c0.21,0.05,0.4,0.11,0.17,0.37c-0.02,0.03-0.03,0.08-0.04,0.11c-0.04,0.09,0.11,0.25-0.04,0.28c-0.12,0.02-0.07-0.19-0.16-0.26
			c-0.02-0.02-0.03-0.05-0.05-0.08c-0.04,0-0.08,0-0.12,0c0.12,0.43,0.25,0.86,0.37,1.29c0,0.02,0,0.04,0,0.06
			C15.36,17.8,15.4,17.82,15.44,17.84z"/>
		<path fill="#ECB887" d="M14.82,16.36c-0.06,0.24-0.31,0.43-0.42,0.28c-0.09-0.12-0.17-0.15-0.25-0.17
			c-0.04,0.09-0.1,0.19-0.14,0.28c-0.04-0.08-0.1-0.15-0.15-0.23c-0.05,0.02-0.1,0.04-0.16,0.05c-0.25,0.05-0.42,0.14-0.48,0.39
			c0,0.1,0,0.2,0,0.31c0.01,0.01,0.02,0.02,0.02,0.02c-0.21,0.29,0.02,0.53,0.1,0.78c0.01,0.07,0,0.16,0.1,0.16
			c0.08,0,0.08-0.08,0.09-0.14c0.03-0.23,0.08-0.43,0.39-0.34c0.02,0.01,0.06-0.01,0.09-0.03c0.43-0.31,0.86-0.26,1.3-0.03
			c-0.12-0.43-0.25-0.86-0.37-1.29C14.91,16.4,14.86,16.38,14.82,16.36z"/>
		<path fill="#E9B584" d="M13.25,17.31c0,0-0.01-0.01-0.02-0.02c-0.45-0.03-0.86,0.24-1.32,0.13c-0.12-0.03-0.22-0.04-0.22-0.19
			c-0.22-0.02-0.45-0.1-0.61,0.12c0,0.1,0,0.2,0,0.31c0.04,0,0.08,0,0.12,0c0.05-0.05,0.1-0.07,0.16-0.03
			c0.33,0.21,0.68,0.33,1.06,0.4c0.08,0,0.16,0,0.25,0c0.04,0,0.08,0,0.12,0c0.18,0.06,0.37,0.07,0.55,0.06
			C13.26,17.83,13.04,17.6,13.25,17.31z"/>
		<path fill="#EFBB8B" d="M15.87,18.57c0.1-0.02,0.2-0.04,0.31-0.06c-0.11-0.36-0.47-0.4-0.74-0.55c-0.08,0.16,0.18,0.35-0.06,0.49
			c-0.07,0-0.14,0-0.18-0.06c-0.07,0-0.14,0-0.18-0.06c-0.12,0-0.25,0-0.37,0c-0.01,0.16-0.04,0.31-0.25,0.31
			c-0.03,0.41,0.28,0.29,0.49,0.31c0-0.07,0-0.17,0.06-0.19C15.24,18.64,15.53,18.46,15.87,18.57z"/>
		<path fill="#F2C091" d="M15.53,18.76c0.14-0.01,0.29-0.01,0.34-0.19c-0.34-0.12-0.62,0.06-0.92,0.17
			c-0.07,0.03-0.06,0.12-0.06,0.19c0.02,0.04,0.04,0.08,0.06,0.12c0.08,0.02,0.14,0.07,0.1,0.14c-0.17,0.27,0.03,0.3,0.21,0.35
			c-0.06-0.15-0.09-0.29-0.07-0.46C15.21,18.86,15.32,18.78,15.53,18.76z"/>
		<path fill="#ECB887" d="M14.64,18.33c-0.08-0.05-0.16-0.09-0.23-0.14c-0.07-0.05-0.14-0.15-0.23-0.04
			c-0.07,0.08-0.01,0.17,0.06,0.24c0.07,0.07,0.15,0.14,0.16,0.25C14.6,18.64,14.63,18.49,14.64,18.33z"/>
		<path fill="#ECB887" d="M15.44,17.96c0-0.04,0-0.08,0-0.12c-0.04-0.02-0.08-0.04-0.12-0.06c-0.08,0.23,0.06,0.45,0.06,0.68
			C15.61,18.31,15.36,18.12,15.44,17.96z"/>
		<path fill="#ECB887" d="M15.01,18.33c0.05,0.06,0.12,0.06,0.18,0.06C15.16,18.27,15.1,18.24,15.01,18.33z"/>
		<path fill="#EDBB8D" d="M11.51,18.29c0.13,0.03,0.2-0.04,0.26-0.12c0.08-0.1-0.02-0.15-0.09-0.22c-0.14-0.14-0.37-0.13-0.48-0.3
			c-0.04,0-0.08,0-0.12,0c-0.1-0.02-0.18-0.05-0.17-0.17c0.01-0.1,0.08-0.13,0.17-0.14c0.17-0.22,0.4-0.14,0.61-0.12
			c0.26-0.12-0.04-0.25,0-0.37c-0.14-0.02-0.26-0.19-0.43-0.06c0.01,0.22-0.13,0.26-0.31,0.25c-0.1,0.09-0.14,0.01-0.18-0.06
			c0-0.02,0-0.04,0-0.06c-0.23,0.03-0.39-0.07-0.5-0.26c-0.12-0.21-0.25-0.18-0.35,0.03c-0.02,0.05-0.04,0.09-0.07,0.14
			c-0.05,0.07-0.16,0.14-0.08,0.23c0.07,0.09,0.19,0.11,0.31,0.06c0.1-0.05,0.22-0.11,0.3,0.01c0.1,0.15,0.21,0.32,0.17,0.5
			c-0.03,0.14-0.13,0.3-0.33,0.14c-0.07-0.06-0.15-0.11-0.22-0.16c-0.03-0.03-0.07-0.05-0.11-0.01c-0.02,0.02-0.03,0.07-0.02,0.08
			c0.2,0.24-0.03,0.33-0.15,0.46c-0.04,0.04-0.1,0.08-0.08,0.15c0.03,0.08,0.1,0.09,0.17,0.1c0.1,0.01,0.19-0.02,0.25-0.09
			c0.08-0.1,0.16-0.16,0.28-0.08c0.12,0.08,0.18,0.19,0.16,0.34c-0.02,0.09-0.03,0.18-0.04,0.27c0.23-0.08,0.45-0.16,0.68-0.25
			C11.15,18.21,11.15,18.2,11.51,18.29z"/>
		<path fill="#F2C091" d="M11.79,18.58c-0.21,0.08-0.44,0.19-0.65,0c-0.23,0.08-0.45,0.16-0.68,0.25c-0.08,0-0.16,0-0.25,0
			c-0.12,0.28-0.33,0.36-0.61,0.25c0,0.02,0,0.04,0,0.06c0.02,0.02,0.04,0.04,0.06,0.06c0.13,0.14,0.29,0.11,0.45,0.06
			c0.23-0.08,0.21,0.04,0.16,0.19c0.18-0.01,0.33,0.03,0.37,0.24c0.26-0.06,0.51-0.1,0.78-0.07c0.2,0.03,0.36-0.06,0.44-0.25
			c0.05-0.12,0.14-0.19,0.22-0.28c0.03-0.03,0.06-0.05,0.09-0.08c0.03-0.08,0.06-0.15,0.1-0.23c-0.01-0.03-0.01-0.06-0.03-0.1
			C12.13,18.5,11.98,18.5,11.79,18.58z"/>
		<path fill="#EDBB8D" d="M10.28,19.43c-0.02,0.08-0.04,0.16-0.06,0.24c0.14,0,0.29,0,0.43,0C10.61,19.47,10.46,19.42,10.28,19.43z"
			/>
		<path fill="#EFB784" d="M12.67,18.02c-0.08,0-0.16,0-0.25,0C12.51,18.19,12.59,18.19,12.67,18.02z"/>
		<path fill="#F2C091" d="M18.64,18.7c-0.22-0.16-0.4-0.4-0.58-0.61c-0.07-0.08-0.03-0.17,0.02-0.26c0.03-0.25-0.04-0.45-0.15-0.63
			c-0.04,0.13-0.09,0.26-0.13,0.39c-0.2,0.53-0.44,1.03-0.75,1.48c0.03,0.07,0.04,0.15,0.05,0.23c0.01,0.23-0.09,0.41-0.27,0.55
			c-0.08,0.06-0.12,0.01-0.18-0.04c-0.07-0.06-0.13-0.08-0.18-0.07c-0.04,0.04-0.09,0.08-0.13,0.11c-0.01,0.02-0.02,0.04-0.03,0.06
			l0,0c0.13,0,0.18,0.06,0.19,0.18c0.01,0.14,0.1,0.21,0.23,0.17c0.23-0.06,0.33,0.06,0.37,0.24c0.04,0.19,0.16,0.21,0.32,0.2
			c0.02-0.18,0.19-0.23,0.31-0.32c0.19-0.14,0.22-0.22-0.01-0.34c-0.22-0.11-0.41-0.57-0.34-0.8c0.01-0.04,0.06-0.08,0.09-0.12
			c0.18,0.23,0.52-0.57,0.63,0.1c0,0.01,0.01,0.02,0.02,0.02c0.24,0.02,0.4,0.24,0.65,0.22c0.04-0.07,0.07-0.14,0.12-0.2
			c0.13-0.15,0.13-0.41,0.37-0.47c0-0.09,0.01-0.18-0.06-0.25C19.05,18.82,18.82,18.83,18.64,18.7z"/>
		<path fill="#F2C091" d="M16.23,17.58c-0.05,0.08-0.11,0.11-0.19,0.13c-0.2,0.04-0.4,0.08-0.6,0.12c0,0.04,0,0.08,0,0.12
			c0.27,0.16,0.62,0.19,0.74,0.55c0.05,0.04,0.09,0.08,0.14,0.11c0.17-0.34,0.32-0.69,0.44-1.05c0.05-0.14,0.1-0.28,0.15-0.43
			C16.62,17.13,16.45,17.25,16.23,17.58z"/>
		<path fill="#F5C496" d="M16.08,19.1c0.09-0.15,0.16-0.31,0.24-0.47c-0.05-0.04-0.09-0.07-0.14-0.11c-0.1,0.02-0.2,0.04-0.31,0.06
			c-0.05,0.18-0.2,0.17-0.34,0.19c-0.2,0.02-0.32,0.1-0.35,0.34c-0.02,0.17,0.02,0.31,0.07,0.46c0.04,0.08,0.1,0.12,0.18,0.12
			c0.02,0,0.03,0.03,0.05,0.03C15.72,19.56,15.93,19.35,16.08,19.1z"/>
		<path fill="#F5C496" d="M16.45,19.75c0.05,0,0.11,0.02,0.18,0.07c0.06,0.05,0.1,0.1,0.18,0.04c0.18-0.14,0.29-0.32,0.27-0.55
			c-0.01-0.08-0.02-0.16-0.05-0.23C16.87,19.32,16.67,19.54,16.45,19.75z"/>
		<path fill="#F5C496" d="M16.3,19.93c0.01-0.03,0.02-0.04,0.03-0.06c-0.02,0.02-0.04,0.04-0.06,0.06
			C16.27,19.92,16.29,19.92,16.3,19.93z"/>
		<path fill="#F2C091" d="M15.44,19.68c0,0.02,0.02,0.03,0.03,0.04c0.01,0,0.01-0.01,0.02-0.01C15.47,19.71,15.46,19.68,15.44,19.68
			z"/>
		<path fill="#EBB888" d="M20.17,15.32c0.01,0.11-0.07,0.2-0.08,0.28c-0.02,0.2-0.26,0.35-0.15,0.56c0.22,0.39,0.79,0.39,1.08,0.02
			c-0.15-0.01-0.32,0.14-0.44-0.06c-0.11-0.18-0.04-0.34,0.08-0.49c0.11-0.14,0.01-0.29-0.01-0.43c-0.02,0-0.04,0-0.06,0
			C20.49,15.37,20.32,15.3,20.17,15.32z"/>
		<path fill="#EDBB8D" d="M20.66,15.2c0.01-0.08,0.21-0.16,0-0.25c-0.02,0.08-0.04,0.16-0.06,0.25C20.62,15.2,20.64,15.2,20.66,15.2
			z"/>
		<path fill="#EDBC8E" d="M8.91,13.27c-0.02,0.13-0.14,0.18-0.23,0.14c-0.26-0.12-0.41,0.18-0.65,0.16
			c-0.07-0.01-0.08,0.08-0.09,0.14c-0.02,0.13-0.04,0.26-0.06,0.39c0.01,0,0.01,0,0.02-0.01c0.18-0.16,0.36-0.33,0.48-0.3
			c0.1,0.03,0.19,0.05,0.28,0.06c0.19-0.05,0.38-0.08,0.57-0.11c0.29-0.16,0.49-0.48,0.66-0.82c0.05-0.1,0.08-0.2,0.13-0.3
			c0-0.14,0-0.28-0.03-0.41c-0.04-0.27-0.14-0.36-0.39-0.33c-0.06,0.02-0.12,0.04-0.18,0.06v0l0,0c-0.01,0.04-0.02,0.07-0.03,0.1
			c-0.04,0.08-0.1,0.09-0.2-0.02c-0.09-0.1-0.19-0.14-0.32-0.14C8.83,11.92,8.78,11.96,8.74,12c0.05,0.27-0.16,0.52-0.06,0.8
			c0.02,0.02,0.04,0.04,0.06,0.06C8.95,12.93,8.94,13.1,8.91,13.27z"/>
		<path fill="#EDBC8E" d="M9.42,11.94L9.42,11.94c-0.01,0.04-0.02,0.07-0.03,0.1C9.4,12.01,9.41,11.98,9.42,11.94z"/>
		<path fill="#EBB685" d="M8.71,15.34c0.03-0.1,0.1-0.07,0.16-0.02c0.19,0.01,0.4-0.05,0.55,0.12c0.21-0.01,0.41-0.01,0.61,0.06
			c0.05-0.14,0.04-0.29,0.03-0.44c-0.31-0.05-0.61-0.11-0.92-0.18c-0.05,0-0.1-0.01-0.14-0.03c-0.25-0.06-0.5-0.13-0.75-0.2
			c-0.01,0.22-0.05,0.44-0.07,0.66c0.12,0.01,0.17,0.09,0.19,0.2c0.05,0.28,0.24,0.49,0.42,0.69c0.03,0.04,0.07,0.08,0.13,0.06
			c0.04-0.02,0.05-0.06,0.05-0.1c0-0.18,0.01-0.36,0.02-0.55c-0.01-0.07-0.05-0.11-0.12-0.12C8.77,15.49,8.68,15.45,8.71,15.34z"/>
		<path fill="#F1C094" d="M8.8,11.57c-0.08,0-0.16,0-0.25,0c-0.16,0.04-0.18,0.17-0.18,0.31c0,0.04,0,0.08,0,0.12
			c0.12,0,0.25,0,0.37,0c0.04-0.04,0.08-0.08,0.12-0.12C8.85,11.78,8.83,11.67,8.8,11.57z"/>
		<path fill="#F6C69A" d="M18.99,16.77c-0.1,0.03-0.12,0.13-0.1,0.23c0.02,0.11,0.09,0.15,0.2,0.12c0.16-0.03,0.14,0.06,0.1,0.16
			c-0.03,0.08-0.05,0.15-0.06,0.23c-0.05,0.25-0.23,0.25-0.36,0.12c-0.25-0.27-0.37-0.12-0.51,0.09c-0.04,0.06-0.1,0.1-0.17,0.11
			c-0.04,0.08-0.09,0.18-0.02,0.26c0.19,0.21,0.36,0.45,0.58,0.61c0.17,0.12,0.41,0.12,0.54-0.13c0-0.06,0-0.12,0-0.18
			c-0.04-0.17-0.06-0.33,0.12-0.43c0.03-0.11,0.04-0.22,0.12-0.31c0.06-0.12,0.12-0.25,0.18-0.37c-0.12-0.18,0.04-0.37,0-0.55
			C19.39,16.47,19.19,16.71,18.99,16.77z"/>
		<path fill="#F2C091" d="M19.92,17.54c0.08-0.05,0.19-0.12,0.16-0.23c-0.04-0.14-0.16-0.06-0.26-0.05
			c-0.07,0.01-0.14,0.01-0.21,0.02c-0.06,0.12-0.12,0.25-0.18,0.37C19.6,17.66,19.77,17.64,19.92,17.54z"/>
		<path fill="#F1C094" d="M12.18,15.24c0.01,0.15,0.09,0.32-0.15,0.39c-0.09,0.02-0.11,0.14-0.15,0.22c-0.11,0.2,0.01,0.4-0.05,0.6
			c-0.02,0.07,0,0.14,0.06,0.19c0.08,0.06,0.15,0.02,0.22-0.04c0.05-0.05,0.11-0.11,0.19-0.08c0.41,0.17,0.46-0.11,0.52-0.39
			c0.03-0.12,0.08-0.22,0.15-0.33c0.15-0.22,0.1-0.46-0.14-0.6c-0.08-0.05-0.17-0.08-0.26-0.12c-0.13,0.03-0.28,0.05-0.42,0.07
			C12.17,15.16,12.18,15.19,12.18,15.24z"/>
		<path fill="#EBB685" d="M10.43,15.1c0,0.01,0,0.02,0,0.03c0,0.12,0.02,0.25,0.01,0.37c-0.03,0.19,0.17,0.1,0.28,0.13
			c0.18-0.01,0.32,0.01,0.4,0.22c0.09,0.23,0.32,0.19,0.52,0.15c0.04-0.28,0.07-0.56,0.11-0.84C11.3,15.17,10.86,15.15,10.43,15.1z"
			/>
		<path fill="#EBB888" d="M11.69,16.85c-0.1-0.28-0.18-0.56-0.06-0.86c-0.2,0.04-0.42,0.08-0.52-0.15c-0.08-0.21-0.23-0.23-0.4-0.22
			c0.02,0.04,0.04,0.08,0.06,0.12c0.02,0.04,0.04,0.08,0.06,0.12c0.09,0.03,0.22,0.03,0.12,0.18c-0.01,0.07-0.05,0.11-0.12,0.12
			c0.02,0.03,0.03,0.09,0.06,0.1c0.19,0.06,0.33,0.13,0.26,0.38c-0.02,0.06,0.05,0.1,0.11,0.14C11.43,16.66,11.55,16.84,11.69,16.85
			L11.69,16.85C11.69,16.85,11.69,16.85,11.69,16.85z"/>
		<path fill="#EBB888" d="M12.24,17.15c-0.16-0.14-0.33-0.27-0.55-0.29l0,0c0,0,0,0,0,0c-0.04,0.12,0.26,0.25,0,0.37
			c0,0.15,0.1,0.16,0.22,0.19c0.46,0.11,0.87-0.15,1.32-0.13c0-0.1,0-0.2,0-0.31c-0.16,0.14-0.38,0.13-0.55,0.22
			C12.51,17.29,12.38,17.27,12.24,17.15z"/>
		<polygon fill="#EBB888" points="11.69,16.85 11.69,16.85 11.69,16.85 		"/>
		<polygon fill="#EBB888" points="11.69,16.85 11.69,16.85 11.69,16.85 		"/>
		<path fill="#ECB988" d="M10.43,15.5c0.02-0.12,0-0.25-0.01-0.37c0-0.01,0-0.02,0-0.03c-0.12-0.01-0.24-0.02-0.36-0.04
			c0.01,0.15,0.02,0.3-0.03,0.44c0.23,0.12,0.44,0.32,0.74,0.25c-0.02-0.04-0.04-0.08-0.06-0.12C10.61,15.6,10.4,15.69,10.43,15.5z"
			/>
		<path fill="#ECB988" d="M10.71,15.63c0.02,0.04,0.04,0.08,0.06,0.12l0,0C10.75,15.71,10.73,15.67,10.71,15.63z"/>
		<path fill="#EBB888" d="M11.63,15.99c0.25-0.24,0.18-0.55,0.22-0.84c-0.04,0-0.07,0-0.11,0C11.7,15.43,11.67,15.71,11.63,15.99z"
			/>
		<path fill="#F6C69A" d="M17.46,10.9c-0.05-0.15-0.17-0.21-0.31-0.25C17.18,10.83,17.32,10.86,17.46,10.9z"/>
		<path fill="#F9C99D" d="M12.87,9.89c-0.26-0.14-0.41-0.08-0.54,0.17c-0.09,0.16-0.06,0.31-0.02,0.47
			c0.09-0.01,0.15-0.05,0.21-0.12c0.15-0.17,0.36-0.16,0.54-0.1c0.2,0.07,0.34,0.36,0.62,0.18c0.01-0.01,0.07,0.04,0.09,0.07
			c0.05,0.08,0.09,0.18,0.2,0.1c0.1-0.07,0.03-0.15,0-0.24c-0.09-0.29-0.18-0.57-0.36-0.81c-0.08,0-0.16,0-0.24,0
			C13.31,9.93,13.14,10.04,12.87,9.89z"/>
		<path fill="#FCCEA4" d="M12.31,10.9L12.31,10.9c0.03,0.02,0.06,0.03,0.09,0.05c0.08,0,0.17,0,0.25,0.01c0.03,0,0.07,0.04,0.1,0.06
			c0.05,0,0.1,0.01,0.14-0.01c0.13-0.04,0.3-0.03,0.33-0.22c0.02-0.16-0.11-0.24-0.2-0.32c-0.15-0.12-0.21,0.04-0.3,0.1
			c-0.13,0.09-0.27,0.17-0.4,0.26C12.31,10.86,12.31,10.88,12.31,10.9L12.31,10.9z"/>
		<path fill="#FCCEA4" d="M12.31,10.9L12.31,10.9c0.03,0.02,0.06,0.03,0.09,0.05l0,0C12.37,10.93,12.33,10.92,12.31,10.9z"/>
		<path fill="#F9C99D" d="M12.24,10.9c0.02,0,0.04,0,0.06,0c0-0.02,0-0.04,0-0.06c0-0.07,0-0.14-0.06-0.18
			c-0.02,0.04-0.04,0.08-0.06,0.12C12.2,10.82,12.22,10.86,12.24,10.9z"/>
		<path fill="#EFBF92" d="M15.07,16.42c0.02,0.03,0.03,0.06,0.05,0.08c0.09,0.07,0.04,0.28,0.16,0.26c0.15-0.03,0-0.19,0.04-0.28
			c0.02-0.04,0.02-0.08,0.04-0.11c0.23-0.26,0.04-0.32-0.17-0.37C15.31,16.18,15.12,16.28,15.07,16.42z"/>
		<path fill="#F2C091" d="M15.13,15.87c0.38-0.01,0.39-0.02,0.31-0.37C15.28,15.58,15.08,15.62,15.13,15.87z"/>
		<path fill="#F0BF90" d="M18.37,17c0.13,0.1,0.24-0.06,0.26-0.2c0.02-0.16-0.05-0.3-0.19-0.4c-0.07-0.05-0.11-0.1-0.14-0.16
			c-0.09,0.19-0.17,0.39-0.24,0.59C18.16,16.88,18.27,16.93,18.37,17z"/>
		<path fill="#F6C69A" d="M14.52,13.41c0.09-0.01,0.2,0.04,0.27-0.06c0.03-0.05,0.01-0.1-0.03-0.13c-0.08-0.07-0.15-0.03-0.23,0
			c-0.01,0.02-0.01,0.04-0.02,0.07C14.52,13.33,14.52,13.37,14.52,13.41z"/>
		<path fill="#F0BF90" d="M12.18,10.77c-0.02,0-0.04,0-0.06,0c-0.1,0-0.2,0-0.31,0c-0.03,0-0.05,0-0.08,0
			c-0.01,0.02-0.02,0.05-0.03,0.07c0.01,0.03,0.01,0.07,0.03,0.1c0.18,0,0.35,0,0.51,0c0-0.01,0-0.03,0-0.04
			C12.22,10.86,12.2,10.82,12.18,10.77z"/>
		<path fill="#F0BF90" d="M16.85,15.75c0.02-0.04,0.04-0.08,0.06-0.12c0-0.08,0-0.16,0-0.25c-0.02-0.27-0.23-0.16-0.37-0.18
			c0.16,0.18,0.09,0.37,0,0.55c0.04,0,0.08,0,0.12,0C16.73,15.75,16.79,15.75,16.85,15.75z"/>
		<path fill="#EFBF92" d="M17.1,15.75c-0.09,0-0.13-0.08-0.18-0.12c-0.02,0.04-0.04,0.08-0.06,0.12c0.02,0.04,0.04,0.07,0.05,0.11
			c0.03,0.06,0.07,0.13,0.02,0.2c-0.04,0.05-0.11,0.06-0.17,0.03c-0.07-0.04-0.14-0.09-0.12-0.19c0.01-0.05,0.02-0.1,0.03-0.15
			c-0.04,0-0.08,0-0.12,0c-0.19,0.33-0.32,0.69-0.46,1.05c-0.04,0.09-0.15,0.19-0.04,0.26c0.12,0.08,0.12-0.09,0.17-0.15
			c0.05-0.08,0.09-0.19,0.2-0.13c0.32,0.17,0.51-0.05,0.72-0.21c0.01-0.02,0.01-0.03,0.02-0.05C17.23,16.25,17.17,16,17.1,15.75z"/>
		<path fill="#F1C094" d="M17.36,16.01c0,0.02,0.01,0.02,0.01,0.03c0.02-0.04,0.04-0.07,0.06-0.1
			C17.4,15.95,17.37,15.97,17.36,16.01z"/>
		<path fill="#FCCCA0" d="M12.74,9.48c0.08,0,0.16,0,0.25,0c0-0.02,0-0.04,0-0.06c-0.06-0.06-0.12-0.12-0.18-0.18
			c-0.06,0.05-0.06,0.12-0.06,0.18C12.74,9.44,12.74,9.46,12.74,9.48z"/>
		<path fill="#F1C094" d="M11.95,10.61c-0.09,0.01-0.12,0.09-0.13,0.17c0.1,0,0.2,0,0.31,0C12.08,10.7,12.06,10.6,11.95,10.61z"/>
		<path fill="#F9C99D" d="M12.98,9.48c-0.08,0-0.16,0-0.25,0C12.82,9.59,12.9,9.69,12.98,9.48z"/>
		<path fill="#F3C396" d="M10.83,16.18c0.07-0.01,0.11-0.05,0.12-0.12c-0.08-0.04-0.12-0.1-0.12-0.18
			c-0.02-0.04-0.04-0.08-0.06-0.12v0c-0.3,0.08-0.5-0.13-0.74-0.25c-0.2-0.07-0.41-0.07-0.61-0.06c-0.12,0.3,0.18,0.31,0.31,0.43
			c0.1,0.02,0.2,0.04,0.31,0.06c0.07,0,0.14,0,0.18,0.06c0.12,0.06,0.25,0.12,0.37,0.19C10.67,16.18,10.75,16.18,10.83,16.18z"/>
		<path fill="#F3C396" d="M10.77,15.75L10.77,15.75c0.02,0.04,0.04,0.08,0.06,0.12C10.81,15.83,10.79,15.79,10.77,15.75L10.77,15.75
			z"/>
		<path fill="#EAB686" d="M10.95,17.04c0.18,0.01,0.32-0.02,0.31-0.25c-0.05-0.03-0.12-0.08-0.11-0.14
			c0.07-0.25-0.07-0.32-0.26-0.38c-0.03-0.01-0.04-0.06-0.06-0.1c-0.08,0-0.16,0-0.24,0c0,0.04,0,0.08,0,0.12
			c-0.03,0.23,0.17,0.39,0.18,0.61c0,0.02,0,0.04,0,0.06C10.84,16.98,10.91,16.98,10.95,17.04z"/>
		<path fill="#EFBB8B" d="M9.6,19.07c0.28,0.12,0.49,0.04,0.61-0.25c-0.11-0.18-0.25-0.25-0.46-0.2c-0.13,0.03-0.26,0.01-0.4,0.01
			c-0.08,0.08-0.08,0.16,0,0.25C9.56,18.78,9.57,18.94,9.6,19.07z"/>
		<path fill="#EDBB8D" d="M9.42,15.44c-0.16-0.17-0.36-0.11-0.55-0.12c0,0.06,0,0.12,0,0.18c0.07,0.01,0.11,0.05,0.12,0.12
			c0.21,0.21,0.42,0.41,0.74,0.43c0-0.06,0-0.12,0-0.18C9.6,15.75,9.3,15.75,9.42,15.44z"/>
		<path fill="#EDBC8E" d="M10.22,15.99c-0.03,0.46-0.01,0.48,0.37,0.31c0-0.04,0-0.08,0-0.12C10.46,16.12,10.34,16.06,10.22,15.99z"
			/>
		<path fill="#EDBC8E" d="M9.73,16.06c0.01,0.07-0.03,0.18,0.07,0.2c0.09,0.02,0.13-0.07,0.17-0.13c0.03-0.06,0.05-0.13,0.07-0.19
			c-0.1-0.02-0.2-0.04-0.31-0.06C9.73,15.93,9.73,15.99,9.73,16.06z"/>
		<path fill="#EABA8C" d="M9.36,18.88c0.02,0.14,0.07,0.25,0.25,0.25c0-0.02,0-0.04,0-0.06C9.57,18.94,9.56,18.78,9.36,18.88z"/>
		<path fill="#F1C094" d="M9.63,11.61c-0.11-0.04-0.28-0.02-0.35,0.1c-0.06,0.1-0.02,0.16,0.05,0.2c0.03,0.01,0.06,0.02,0.09,0.03
			c0.06-0.02,0.12-0.04,0.18-0.06C9.63,11.79,9.81,11.69,9.63,11.61z"/>
		<path fill="#ECB988" d="M10.91,17.48c-0.01,0.12,0.07,0.15,0.17,0.17c0-0.1,0-0.2,0-0.31C10.99,17.36,10.92,17.39,10.91,17.48z"/>
		<path fill="#EBB888" d="M10.95,17.04c-0.05-0.06-0.12-0.06-0.18-0.06C10.82,17.04,10.86,17.13,10.95,17.04z"/>
		<path fill="#EBB888" d="M8.71,15.34c-0.03,0.12,0.07,0.15,0.16,0.17c0-0.06,0-0.12,0-0.18C8.81,15.27,8.73,15.23,8.71,15.34z"/>
		<path fill="#ECB988" d="M10.83,15.87c0.01,0.09,0.05,0.15,0.12,0.18C11.05,15.9,10.92,15.9,10.83,15.87z"/>
		<path fill="#EDBC8E" d="M16.63,15.9c-0.02,0.1,0.05,0.15,0.12,0.19c0.06,0.03,0.12,0.02,0.17-0.03c0.06-0.07,0.01-0.13-0.02-0.2
			c-0.02-0.04-0.04-0.07-0.05-0.11c-0.06,0-0.12,0-0.18,0C16.65,15.8,16.64,15.85,16.63,15.9z"/>
	</g>
	<g display="inline">
		<radialGradient id="SVGID_1_" cx="21.5507" cy="7.3388" r="28.2812" gradientUnits="userSpaceOnUse">
			<stop  offset="0" style="stop-color:#805643"/>
			<stop  offset="1" style="stop-color:#120000"/>
		</radialGradient>
		<path fill="url(#SVGID_1_)" d="M21.91,13.13c-0.04-0.32-0.1-0.63-0.18-0.94c-0.3-1.12-0.84-2.14-1.55-3.01
			c0.01-0.01,0.02-0.01,0.03-0.01c0,0,0.01,0,0.01-0.01c0.29-0.23,0.77-0.02,0.77-0.02c-0.62-0.51,0.22-2.04,0.22-2.04
			s-1.53,0.84-2.04,0.22c0,0,0.15,0.36,0.04,0.64c-0.02,0.06-0.04,0.12-0.09,0.17c-0.1-0.08-0.21-0.16-0.32-0.24
			c-0.02-0.01-0.03-0.02-0.05-0.03c-0.12-0.09-0.25-0.18-0.38-0.26c-0.04-0.02-0.08-0.05-0.12-0.07c-0.25-0.16-0.51-0.31-0.78-0.44
			c-0.07-0.02-0.14-0.06-0.21-0.09c-0.08-0.04-0.16-0.07-0.25-0.1c-0.09-0.04-0.18-0.08-0.28-0.11c-0.06-0.02-0.11-0.04-0.17-0.05
			c-0.11-0.04-0.21-0.07-0.32-0.1c-0.02-0.01-0.04-0.01-0.06-0.02c-0.13-0.03-0.25-0.06-0.38-0.09c-0.04-0.01-0.08-0.02-0.12-0.03
			c-0.53-0.11-1.07-0.18-1.63-0.18s-1.11,0.06-1.63,0.18c-0.02,0-0.04,0.01-0.05,0.01c-0.47,0.1-0.92,0.24-1.36,0.42
			c-0.03,0.01-0.07,0.03-0.1,0.04c-0.09,0.04-0.17,0.08-0.25,0.12c-0.07,0.02-0.13,0.06-0.19,0.1c-0.11,0.06-0.23,0.1-0.34,0.17
			c-0.07,0.04-0.13,0.08-0.2,0.12C9.83,7.52,9.74,7.58,9.65,7.64C9.57,7.69,9.5,7.74,9.42,7.8c-0.07,0.05-0.14,0.1-0.2,0.15
			C9.14,8.01,9.07,8.06,8.99,8.12C8.96,8.09,8.95,8.05,8.93,8.01c-0.16-0.29,0.01-0.7,0.01-0.7C8.44,7.93,6.91,7.09,6.91,7.09
			s0.84,1.53,0.22,2.04c0,0,0.53-0.24,0.81,0.05C7.9,9.22,7.87,9.26,7.84,9.3C7.83,9.32,7.81,9.34,7.8,9.36
			C7.7,9.49,7.6,9.62,7.5,9.75C7.49,9.78,7.47,9.81,7.46,9.83C7.44,9.86,7.42,9.89,7.4,9.91C7.39,9.93,7.38,9.95,7.37,9.96
			C7.24,10.17,7.12,10.38,7,10.6c-0.01,0.02-0.02,0.04-0.03,0.06c-0.02,0.04-0.04,0.08-0.06,0.12c-0.01,0.02-0.02,0.03-0.03,0.05
			c-0.09,0.18-0.16,0.37-0.24,0.55c-0.12,0.3-0.21,0.6-0.29,0.92c-0.02,0.1-0.05,0.2-0.07,0.3c0,0,0,0.01,0,0.01
			c-0.05,0.24-0.09,0.48-0.12,0.72c-0.01,0.11-0.02,0.22-0.03,0.33c-0.01,0.19-0.03,0.38-0.03,0.58c0,0.4,0.04,0.8,0.09,1.18
			c0.04,0.3,0.1,0.6,0.18,0.88c0.07,0.25,0.15,0.49,0.23,0.72c0.3,0.79,0.71,1.51,1.23,2.15c0.03,0.04,0.06,0.08,0.09,0.12
			c-0.01,0.01-0.02,0.01-0.03,0.02c-0.29,0.25-0.78,0.03-0.78,0.03c0.62,0.51-0.22,2.04-0.22,2.04s1.53-0.84,2.04-0.22
			c0,0-0.17-0.4-0.01-0.7c0.02-0.04,0.03-0.08,0.06-0.11c0.06,0.05,0.12,0.09,0.18,0.14c0.14,0.11,0.29,0.22,0.43,0.32
			c0.02,0.01,0.04,0.03,0.06,0.04c0.06,0.04,0.11,0.07,0.17,0.11c0.02,0.01,0.03,0.02,0.05,0.03c0.06,0.04,0.12,0.08,0.19,0.12
			c0.02,0.01,0.03,0.02,0.05,0.03c0.14,0.08,0.29,0.15,0.43,0.23c0.08,0.02,0.15,0.06,0.22,0.1c0.14,0.06,0.27,0.12,0.41,0.17
			c0.13,0.05,0.25,0.09,0.38,0.13c0.04,0.01,0.07,0.02,0.11,0.04c0.03,0.01,0.06,0.02,0.09,0.03c0.14,0.04,0.29,0.08,0.43,0.12
			c0.06,0.01,0.12,0.03,0.17,0.04c0.15,0.03,0.29,0.06,0.44,0.08c0,0,0,0,0.01,0c0.03,0.01,0.07,0.01,0.1,0.01
			c0.09,0.01,0.18,0.03,0.27,0.04c0.29,0.03,0.57,0.05,0.87,0.05s0.58-0.02,0.87-0.05c0.06-0.01,0.11-0.02,0.17-0.02
			c0.08-0.01,0.15-0.02,0.23-0.03c0.01,0,0.02,0,0.03,0c0.01,0,0.03,0,0.04-0.01c0,0,0.01,0,0.01,0c1.22-0.21,2.35-0.7,3.32-1.4
			c0.14-0.1,0.27-0.2,0.4-0.31c0.07,0.07,0.11,0.15,0.12,0.24c0.06,0.27-0.08,0.57-0.08,0.57c0.51-0.62,2.04,0.22,2.04,0.22
			s-0.84-1.53-0.22-2.04c0,0-0.39,0.16-0.69,0.02c-0.04-0.02-0.09-0.03-0.13-0.07c0.1-0.12,0.2-0.25,0.29-0.38
			c0.1-0.14,0.2-0.28,0.29-0.43c0.41-0.65,0.73-1.35,0.94-2.11c0.03-0.09,0.05-0.18,0.07-0.28c0.03-0.14,0.07-0.28,0.09-0.42
			c0.09-0.47,0.13-0.95,0.13-1.44C22,13.86,21.97,13.49,21.91,13.13z M20.51,18.04c-0.06,0.1-0.11,0.19-0.18,0.29
			c-0.16,0.25-0.34,0.5-0.54,0.73c-0.1,0.12-0.21,0.24-0.32,0.36c-0.11,0.12-0.23,0.23-0.35,0.34c-0.23,0.21-0.47,0.41-0.73,0.59
			c-0.15,0.11-0.31,0.21-0.48,0.31c-0.06,0.04-0.13,0.08-0.19,0.12c-0.06,0.03-0.11,0.07-0.17,0.1c-0.08,0.04-0.15,0.07-0.23,0.11
			c-0.76,0.37-1.59,0.62-2.47,0.72c-0.27,0.03-0.54,0.05-0.81,0.05c-0.1,0-0.21-0.01-0.31-0.02c-0.08,0-0.17-0.01-0.25-0.01
			c-0.19-0.01-0.38-0.04-0.57-0.07c-0.35-0.05-0.69-0.12-1.02-0.22c-0.12-0.04-0.24-0.08-0.36-0.12c-0.23-0.08-0.45-0.17-0.67-0.28
			c-0.77-0.36-1.47-0.84-2.06-1.43c-0.75-0.74-1.34-1.63-1.73-2.63c-0.15-0.39-0.28-0.79-0.36-1.2c-0.02-0.09-0.03-0.18-0.04-0.27
			c-0.07-0.41-0.11-0.82-0.11-1.25c0-0.19,0.01-0.37,0.03-0.55c0.01-0.15,0.03-0.31,0.05-0.46c0.01-0.04,0.01-0.08,0.02-0.12
			c0.03-0.22,0.07-0.43,0.13-0.64c0.02-0.1,0.05-0.2,0.08-0.31c0.22-0.75,0.54-1.45,0.96-2.08c0.27-0.4,0.57-0.77,0.9-1.1
			c0.29-0.3,0.62-0.57,0.96-0.81c0.73-0.53,1.56-0.92,2.45-1.16c0.04-0.01,0.08-0.02,0.12-0.03c0.58-0.14,1.18-0.23,1.8-0.23
			c0.63,0,1.24,0.09,1.83,0.23c0.19,0.05,0.37,0.1,0.56,0.16c0.58,0.2,1.13,0.46,1.64,0.79c1.55,0.99,2.7,2.53,3.19,4.34
			c0.08,0.3,0.14,0.6,0.19,0.92c0.05,0.35,0.08,0.7,0.08,1.06c0,0.44-0.05,0.87-0.12,1.3c-0.05,0.27-0.11,0.53-0.18,0.79
			c-0.08,0.28-0.17,0.55-0.28,0.82C20.84,17.46,20.68,17.75,20.51,18.04z"/>
		<radialGradient id="SVGID_2_" cx="21.5507" cy="7.3388" r="28.2812" gradientUnits="userSpaceOnUse">
			<stop  offset="0" style="stop-color:#805643"/>
			<stop  offset="1" style="stop-color:#120000"/>
		</radialGradient>
		<path fill="url(#SVGID_2_)" d="M12.57,15.06c0.78-0.19,1.38-0.64,1.72-1.24c0.09-0.16,0.17-0.34,0.22-0.53
			c0.01-0.02,0.01-0.04,0.02-0.07c0.02-0.08,0.04-0.16,0.06-0.25c0.02-0.15,0.03-0.3,0.03-0.46c0-0.07-0.03-0.13-0.07-0.19
			c-0.06-0.1-0.14-0.19-0.2-0.29c-0.06,0.14-0.14,0.27-0.17,0.41c0,0.02-0.02,0.04-0.02,0.07c-0.01,0.16-0.04,0.31-0.08,0.45
			c0,0.01,0,0.03-0.01,0.04c-0.05,0.17-0.12,0.33-0.2,0.48c-0.22,0.37-0.54,0.64-0.99,0.76c-0.97,0.26-1.92,0.08-2.88-0.08
			c-0.04-0.01-0.07-0.01-0.11-0.02c0.1-0.12,0.19-0.23,0.29-0.33c0.2-0.22,0.39-0.43,0.52-0.65c0.03-0.05,0.06-0.09,0.08-0.15
			c0.04-0.1,0.09-0.2,0.14-0.29c0.23-0.46,0.5-0.83,0.91-1.06c0.24-0.13,0.52-0.22,0.87-0.22c0.03,0,0.05-0.02,0.08-0.04
			c0.02-0.02,0.04-0.04,0.06-0.06c0,0,0.01-0.01,0.01-0.01c0.03-0.04,0.06-0.08,0.09-0.12c-0.06-0.06-0.13-0.13-0.19-0.18
			c-0.03-0.03-0.06-0.06-0.1-0.06c-0.08-0.01-0.17-0.01-0.25-0.01c-0.05,0-0.1-0.01-0.16-0.01c-0.16,0-0.32,0-0.51,0
			c-0.02,0-0.04,0-0.07,0c0.01-0.03,0.03-0.06,0.04-0.1c0.01-0.03,0.02-0.05,0.03-0.07c0.12-0.29,0.22-0.55,0.34-0.8
			c0.12-0.24,0.25-0.43,0.4-0.6c0.1-0.11,0.2-0.22,0.32-0.3c0.09-0.06,0.18-0.12,0.27-0.16c0.32-0.15,0.69-0.2,1.11-0.16
			c0.11,0.01,0.23,0.03,0.35,0.05c0.73,0.15,0.99,0.7,0.65,1.35c-0.03,0.05-0.03,0.12-0.04,0.19c0,0.08,0,0.16-0.01,0.24
			c0.15-0.02,0.32,0.01,0.44-0.06c0.17-0.1,0.3-0.23,0.41-0.37c0.01-0.01,0.01-0.02,0.02-0.03c0.07-0.1,0.13-0.21,0.17-0.32
			c0.06-0.16,0.09-0.33,0.08-0.53c-0.02-0.34-0.16-0.61-0.37-0.81c-0.15-0.14-0.33-0.26-0.56-0.32c-1.11-0.32-2.14-0.09-3.06,0.58
			c-0.23,0.17-0.43,0.36-0.62,0.57c-0.5,0.57-0.83,1.26-1.11,1.98c-0.02,0.05-0.04,0.11-0.06,0.16c-0.04,0.11-0.08,0.21-0.11,0.32
			c-0.11,0.29-0.22,0.58-0.35,0.87c-0.04,0.1-0.08,0.2-0.13,0.3c-0.17,0.34-0.37,0.65-0.66,0.82c-0.16,0.09-0.34,0.13-0.57,0.11
			c-0.09-0.01-0.18-0.03-0.28-0.06c-0.12-0.04-0.3,0.14-0.48,0.3c-0.01,0.01-0.03,0.02-0.04,0.03c-0.04,0.04-0.09,0.07-0.13,0.1
			c0.01,0.01,0.01,0.02,0.02,0.03c0.08,0.13,0.15,0.31,0.26,0.34c0.08,0.02,0.17,0.04,0.25,0.07c0.25,0.07,0.5,0.14,0.75,0.2
			c0.04,0.01,0.09,0.02,0.14,0.03c0.3,0.07,0.61,0.13,0.92,0.18c0.12,0.02,0.24,0.03,0.36,0.04c0.43,0.05,0.87,0.07,1.31,0.05
			c0.04,0,0.07,0,0.11,0c0.05,0,0.09,0,0.14,0c0.06,0,0.11-0.02,0.16-0.02C12.29,15.11,12.44,15.09,12.57,15.06z"/>
		<radialGradient id="SVGID_3_" cx="21.5507" cy="7.3388" r="28.2812" gradientUnits="userSpaceOnUse">
			<stop  offset="0" style="stop-color:#805643"/>
			<stop  offset="1" style="stop-color:#120000"/>
		</radialGradient>
		<path fill="url(#SVGID_3_)" d="M20.2,14.13c-0.02-0.01-0.05-0.01-0.07-0.02c-0.16-0.05-0.31-0.08-0.47-0.12
			c-0.11-0.03-0.23-0.06-0.34-0.09c-0.98-0.22-1.98-0.33-3-0.27c-0.27,0.01-0.52,0.07-0.76,0.15c-0.23,0.07-0.44,0.17-0.63,0.29
			c-0.37,0.23-0.67,0.54-0.87,0.91c-0.21,0.38-0.33,0.81-0.31,1.27c0,0.05,0.02,0.1,0.05,0.15c0.02,0.04,0.04,0.08,0.07,0.12
			c0.05,0.08,0.11,0.15,0.15,0.23c0.04-0.09,0.09-0.19,0.14-0.28c0.03-0.07,0.06-0.13,0.07-0.2c0-0.08,0.03-0.15,0.04-0.22
			c0.05-0.37,0.15-0.69,0.33-0.94c0.24-0.32,0.6-0.54,1.1-0.6c0.06-0.01,0.11-0.01,0.17-0.01c0.3-0.03,0.6-0.03,0.9-0.03
			c0.14,0,0.28,0,0.41,0.01c0.41,0.02,0.83,0.04,1.24,0.05c0.02,0.06,0.03,0.13,0.05,0.19c-0.42,0.33-0.72,0.73-0.97,1.16
			c-0.01,0.01-0.01,0.02-0.02,0.03c-0.01,0.01-0.02,0.03-0.03,0.04c-0.02,0.04-0.04,0.07-0.06,0.1c-0.08,0.15-0.15,0.31-0.21,0.47
			c-0.01,0.02-0.01,0.03-0.02,0.05c-0.08,0.19-0.16,0.39-0.23,0.59c-0.05,0.14-0.1,0.28-0.15,0.43c-0.12,0.36-0.27,0.71-0.44,1.05
			c-0.08,0.16-0.15,0.32-0.24,0.47c-0.15,0.26-0.36,0.46-0.59,0.61c-0.01,0-0.01,0.01-0.02,0.01c-0.07,0.04-0.13,0.09-0.21,0.12
			c-0.08,0.04-0.17,0.08-0.26,0.11c-0.04,0.01-0.08,0.02-0.13,0.03c-0.36,0.09-0.74,0.08-1.1-0.03c-0.06-0.02-0.13-0.03-0.19-0.06
			c-0.54-0.23-0.7-0.73-0.42-1.23c0.07-0.13,0.06-0.31,0.08-0.46c-0.13,0.02-0.26,0.03-0.38,0.05c-0.05,0.01-0.1,0.01-0.14,0.04
			c-0.2,0.14-0.34,0.3-0.44,0.49c-0.04,0.07-0.08,0.15-0.1,0.23c-0.07,0.21-0.09,0.44-0.04,0.69c0.01,0.06,0.04,0.1,0.05,0.15
			c0.11,0.34,0.34,0.58,0.65,0.72c0.1,0.05,0.21,0.09,0.32,0.11c0.15,0.04,0.29,0.04,0.44,0.06c0.26,0.03,0.52,0.03,0.78,0
			c0.25-0.03,0.5-0.09,0.75-0.17c0.08-0.03,0.16-0.04,0.24-0.08c0.15-0.07,0.3-0.16,0.44-0.25c0.09-0.05,0.18-0.09,0.27-0.15
			c0.01-0.01,0.02-0.02,0.04-0.03c0.05-0.04,0.1-0.09,0.15-0.13c0.02-0.02,0.04-0.04,0.06-0.06c0.04-0.04,0.09-0.07,0.13-0.11
			c0.22-0.21,0.42-0.43,0.58-0.67c0.31-0.45,0.55-0.96,0.75-1.48c0.05-0.13,0.09-0.26,0.13-0.39c0.04-0.13,0.09-0.25,0.13-0.38
			c0.07-0.2,0.15-0.4,0.24-0.59c0.03-0.07,0.05-0.14,0.08-0.2c0.03-0.07,0.07-0.13,0.1-0.2c0.18-0.34,0.38-0.67,0.71-0.82
			c0.09-0.04,0.18-0.06,0.29-0.07c0.09-0.01,0.18-0.01,0.28,0.01c0.08,0.01,0.16,0.02,0.25,0.05c0.1,0.03,0.26-0.12,0.42-0.27
			c0.07-0.07,0.15-0.14,0.21-0.19c-0.1-0.1-0.2-0.24-0.3-0.33C20.29,14.18,20.25,14.15,20.2,14.13z"/>
	</g>
</g>
<g>
	<g>
		<path fill="#FFFFFF" d="M14,6.26c-2.61,0-4.73,1.57-4.73,3.51h4.67h4.79C18.73,7.83,16.61,6.26,14,6.26z"/>
		<path fill="#FFFFFF" d="M18.73,10.63h-4.79H9.27H5.01c-0.23,18.11,8.93,17.05,8.93,17.05s9.31,0.92,8.93-17.05H18.73z M6.64,14.31
			H13l-0.58,2.02L6.64,14.31z M14,24.36h-1.85l1.4-10.06H14h0.45l1.4,10.06H14z M15.58,16.33L15,14.31h6.36L15.58,16.33z"/>
		<path fill="#FFFFFF" d="M14,5.68c1.02,0.02,0-5.66,0-5.66S12.98,5.7,14,5.68z"/>
		<path fill="#FFFFFF" d="M15.94,6.03c0.9,0.27,1.21-4.29,1.21-4.29S15.03,5.79,15.94,6.03z"/>
		<path fill="#FFFFFF" d="M17.43,6.8c0.76,0.67,3.65-4.33,3.65-4.33S16.64,6.16,17.43,6.8z"/>
		<path fill="#FFFFFF" d="M18.7,7.97c0.37,0.86,4.05-1.85,4.05-1.85S18.29,7.13,18.7,7.97z"/>
		<path fill="#FFFFFF" d="M19.21,9.47c-0.01,0.94,3.83-0.01,3.83-0.01S19.19,8.54,19.21,9.47z"/>
		<path fill="#FFFFFF" d="M12.06,6.03c0.91-0.24-1.21-4.29-1.21-4.29S11.17,6.3,12.06,6.03z"/>
		<path fill="#FFFFFF" d="M10.57,6.8c0.79-0.64-3.65-4.33-3.65-4.33S9.8,7.47,10.57,6.8z"/>
		<path fill="#FFFFFF" d="M9.3,7.97c0.41-0.84-4.05-1.85-4.05-1.85S8.93,8.83,9.3,7.97z"/>
		<path fill="#FFFFFF" d="M8.79,9.47c0.02-0.94-3.83-0.01-3.83-0.01S8.8,10.41,8.79,9.47z"/>
	</g>
</g>
</svg>
